<svg width="18" height="18" viewBox="0 0 18 18" fill="none" xmlns="http://www.w3.org/2000/svg">
<path d="M13.3125 3.0675L11.415 4.5225L12.0975 6.8175L10.125 5.46L8.15249 6.8175L8.83499 4.5225L6.93749 3.0675L9.32999 3L10.125 0.75L10.92 3L13.3125 3.0675ZM15.9375 8.25L14.7075 9.1875L15.15 10.6725L13.875 9.795L12.6 10.6725L13.0425 9.1875L11.8125 8.25L13.3575 8.2125L13.875 6.75L14.3925 8.2125L15.9375 8.25ZM14.2275 11.9625C14.85 11.9025 15.5175 12.7875 15.12 13.35C14.88 13.6875 14.625 14.0025 14.31 14.3025C11.3775 17.25 6.62999 17.25 3.70499 14.3025C0.77249 11.3775 0.77249 6.6225 3.70499 3.6975C4.00499 3.3975 4.31999 3.1275 4.65749 2.8875C5.21999 2.49 6.10499 3.1575 6.04499 3.78C5.84249 5.925 6.56249 8.1525 8.21249 9.795C9.85499 11.445 12.075 12.165 14.2275 11.9625ZM12.9975 13.4775C10.875 13.3575 8.77499 12.48 7.14749 10.875C5.51999 9.2325 4.64999 7.125 4.52999 5.01C2.42249 7.365 2.50499 10.98 4.76249 13.245C7.02749 15.5025 10.6425 15.585 12.9975 13.4775Z" fill="#C6C5C0"/>
</svg>
