<svg width="15" height="17" viewBox="0 0 15 17" fill="none" xmlns="http://www.w3.org/2000/svg">
<path d="M12.3125 3.0675L10.415 4.5225L11.0975 6.8175L9.12499 5.46L7.15249 6.8175L7.83499 4.5225L5.93749 3.0675L8.32999 3L9.12499 0.75L9.91999 3L12.3125 3.0675ZM14.9375 8.25L13.7075 9.1875L14.15 10.6725L12.875 9.795L11.6 10.6725L12.0425 9.1875L10.8125 8.25L12.3575 8.2125L12.875 6.75L13.3925 8.2125L14.9375 8.25ZM13.2275 11.9625C13.85 11.9025 14.5175 12.7875 14.12 13.35C13.88 13.6875 13.625 14.0025 13.31 14.3025C10.3775 17.25 5.62999 17.25 2.70499 14.3025C-0.22751 11.3775 -0.22751 6.6225 2.70499 3.6975C3.00499 3.3975 3.31999 3.1275 3.65749 2.8875C4.21999 2.49 5.10499 3.1575 5.04499 3.78C4.84249 5.925 5.56249 8.1525 7.21249 9.795C8.85499 11.445 11.075 12.165 13.2275 11.9625ZM11.9975 13.4775C9.87499 13.3575 7.77499 12.48 6.14749 10.875C4.51999 9.2325 3.64999 7.125 3.52999 5.01C1.42249 7.365 1.50499 10.98 3.76249 13.245C6.02749 15.5025 9.64249 15.585 11.9975 13.4775Z" fill="black"/>
</svg>
