<svg width="20" height="20" viewBox="0 0 20 20" fill="none" xmlns="http://www.w3.org/2000/svg">
<path d="M17.0409 17.0413H14.0776V12.4004C14.0776 11.2937 14.0578 9.86913 12.5363 9.86913C10.9929 9.86913 10.7567 11.0749 10.7567 12.3198V17.041H7.79337V7.49745H10.6382V8.80167H10.678C11.2581 7.80983 12.3367 7.21744 13.4849 7.26007C16.4884 7.26007 17.0422 9.23569 17.0422 11.8059L17.0409 17.0413ZM4.44969 6.19292C3.49994 6.19309 2.72987 5.42328 2.7297 4.47351C2.72953 3.52373 3.49932 2.75365 4.44907 2.75348C5.39883 2.75331 6.1689 3.52311 6.16907 4.47289C6.16915 4.92899 5.98805 5.36644 5.6656 5.68901C5.34316 6.01157 4.90578 6.19284 4.44969 6.19292ZM5.93138 17.0413H2.96492V7.49745H5.93138V17.0413ZM18.5183 0.00149131H1.47582C0.670359 -0.00759854 0.00983024 0.637609 0 1.44308V18.5566C0.00949368 19.3625 0.669969 20.0083 1.47582 19.9999H18.5183C19.3258 20.0099 19.9888 19.3641 20 18.5566V1.44185C19.9885 0.634783 19.3254 -0.0103876 18.5183 0.000126709" fill="white"/>
</svg>
