<svg width="50" height="24" viewBox="0 0 50 24" fill="none" xmlns="http://www.w3.org/2000/svg">
<g clip-path="url(#clip0_1_10130)">
<path d="M31.263 4.46995C31.0464 4.77433 30.8299 5.07871 30.6133 5.38309C30.5661 5.37643 30.5189 5.36976 30.4717 5.3631C30.4182 4.71371 29.9027 4.16993 30.1825 3.43215C30.3185 3.07329 30.477 3.0513 30.8017 3.13872C32.428 3.5765 34.0596 3.99487 35.6914 4.41227C35.8173 4.44447 35.9587 4.4165 36.0707 4.36181C34.2768 3.88762 32.4828 3.41342 30.6775 2.93622C31.2513 2.01456 31.4665 1.96383 32.7683 2.35386C33.5992 2.60283 34.4356 2.83453 35.2737 3.05824C35.3997 3.09187 35.5488 3.03943 35.6678 2.95009C34.3419 2.60599 33.0161 2.26189 31.6588 1.90964C32.7288 0.650889 33.893 1.46822 35.0126 1.66776C35.021 1.61769 35.0295 1.56763 35.0379 1.51756C34.4331 1.35761 33.8284 1.19766 33.1841 1.02727C33.8206 0.36378 34.5903 1.23015 35.3682 0.781289C34.9194 0.757269 34.6294 0.741743 34.3393 0.726217C34.337 0.68105 34.3347 0.635882 34.3324 0.590715C34.6466 0.454647 34.9607 0.318579 35.2423 0.146294C35.2588 0.110077 35.3078 0.110077 35.3582 0.149156C35.4018 0.811612 36.1473 0.916304 36.2631 1.53602C36.4347 1.35563 36.549 1.23545 36.6895 1.08777C36.1509 1.05714 35.6723 0.518891 35.7616 0.110077C36.8309 0.110077 37.9001 0.110077 39.0209 0.158989C39.1154 0.253929 39.1583 0.299958 39.2013 0.345987C39.2321 0.267351 39.2628 0.188714 39.2936 0.110077C39.4469 0.110077 39.6002 0.110077 39.7641 0.149029C39.7968 0.306884 39.8189 0.425788 39.8317 0.495156C40.0444 0.440656 40.244 0.389486 40.4436 0.338317C40.4636 0.478451 40.4836 0.618584 40.5067 0.780003C40.8111 0.560233 41.0512 0.321878 41.4424 0.73788C41.631 0.938416 42.1379 0.802068 42.4584 0.926477C43.1006 1.17569 43.7147 1.497 44.3375 1.79464C44.4366 1.842 44.5205 1.92108 44.6114 1.98549C44.5992 2.01683 44.587 2.04817 44.5748 2.07951C44.2459 2.01752 43.917 1.95554 43.588 1.89355C44.3662 2.33129 45.3188 2.25301 45.9015 3.04236C45.3723 2.96983 44.8646 2.83724 44.3614 2.6896C43.8548 2.54096 43.8568 2.53441 43.695 2.77138C44.323 2.91976 45.0001 3.07845 45.676 3.2417C45.732 3.25523 45.8094 3.33812 45.8284 3.32401C46.3147 2.96117 46.462 3.41193 46.5631 3.68859C46.7816 4.2868 46.9188 4.91455 47.0893 5.53021C47.1377 5.52211 47.1862 5.514 47.2346 5.50589C47.1186 5.00989 47.0027 4.51389 46.8867 4.01789C46.9356 3.99556 46.9846 3.97323 47.0335 3.95091C47.2118 4.2431 47.4401 4.5173 47.5541 4.8326C47.6656 5.14086 47.6605 5.49105 47.7234 5.94411C47.8303 5.67585 47.9001 5.50048 48.027 5.18191C48.4553 6.12803 48.8371 6.97147 49.214 7.80418C49.3625 8.21159 49.5396 8.5888 49.6354 8.98553C49.7809 9.58808 49.8701 10.2042 49.9832 10.8145C50.0256 10.806 50.068 10.7975 50.1104 10.789C50.1104 11.3419 50.1104 11.8948 50.0652 12.4985C49.7925 11.7675 49.5667 10.9852 49.3369 10.204C49.2073 9.76332 49.0712 9.32456 48.9379 8.88494C49.1829 10.3167 49.5364 11.7118 49.9011 13.104C49.9143 13.1544 50.0381 13.176 50.1104 13.211C50.1104 13.3997 50.1104 13.5885 50.1104 13.8244C50.0029 13.9539 49.8954 14.0363 49.7421 14.1537C49.2635 12.3702 48.7716 10.5374 48.282 8.71319C48.0652 8.82693 48.1192 8.81089 48.2021 9.08891C48.4237 9.83269 48.6001 10.5903 48.7722 11.3474C48.783 11.3952 48.6022 11.4863 48.4689 11.5461C48.4274 11.535 48.4356 11.5442 48.4356 11.5442C48.0734 11.4384 47.6743 11.3961 47.3572 11.2127C46.8178 10.9007 46.2096 10.8689 45.6505 10.6636C45.5011 10.6088 45.4175 10.3758 45.2532 10.1577C45.6291 10.1577 45.8418 10.1577 46.0546 10.1577C45.718 9.94588 45.1472 10.1924 45.1472 9.47387C45.3877 9.49374 45.6089 9.512 45.8301 9.53027C45.4494 9.28057 44.895 9.35828 44.8121 8.71686C45.0118 8.74897 45.1953 8.77847 45.4274 8.83466C45.5136 8.84783 45.5513 8.8343 45.5889 8.82078C45.3929 8.74278 45.1799 8.69124 45.0051 8.58005C44.79 8.44325 44.6067 8.25672 44.338 8.03159C44.8553 7.90706 45.245 8.40664 45.6233 7.90861C44.9218 7.94585 44.2921 7.89697 43.9456 7.17563C44.3826 7.27563 44.8197 7.37563 45.2567 7.47562C45.2633 7.42926 45.2699 7.38289 45.2765 7.33653C44.5264 7.02839 43.5743 7.16944 42.9563 6.28284C43.6505 6.44397 44.2369 6.58009 44.8737 6.74291C44.9617 6.75609 44.9994 6.74256 45.0371 6.72904C44.6405 6.57922 44.2494 6.33155 43.8456 6.30879C43.4856 6.28851 43.2017 5.84463 42.7802 6.13452C42.7384 6.16324 42.3629 5.8643 42.2902 5.66403C42.074 5.06868 41.9317 4.44665 41.6311 3.85109C41.7657 4.4338 41.9003 5.01651 42.0591 5.70402C41.1953 5.16448 41.3154 4.32067 41.0782 3.47106C40.8374 4.14018 41.2288 4.60416 41.2616 5.21235C40.4378 4.98781 40.7382 4.14381 40.2944 3.72996C40.375 4.11692 40.4556 4.50388 40.5535 4.97435C39.7197 4.60537 39.9347 3.82587 39.5475 3.29738C39.6463 3.75687 39.7452 4.21636 39.8444 4.67761C39.314 4.67704 39.3024 4.65397 38.9676 3.06436C38.7246 3.59726 39.1602 4.06136 39.1822 4.56721C38.7024 4.62119 38.2846 3.70533 38.4007 2.76248C38.2081 2.92548 38.0707 3.04175 37.9775 3.12064C38.0993 3.35866 38.2155 3.54896 38.2961 3.75323C38.386 3.98094 38.4435 4.22134 38.4403 4.57105C38.2472 4.45117 38.0541 4.3313 37.8277 4.19075C37.3274 4.60882 36.9968 4.68748 36.7821 4.3536C36.188 4.97799 35.4889 4.89667 34.7507 4.67474C33.9736 4.4411 33.1843 4.24795 32.4999 4.0639C32.4496 4.21718 32.4452 4.34213 32.3806 4.40982C31.8487 4.96671 31.3057 5.51296 30.6957 6.01227C30.6089 5.20281 31.4999 5.02216 31.7547 4.40298C31.6476 4.40298 31.5416 4.40298 31.3764 4.36051C31.1214 4.27085 30.9256 4.22365 30.7022 4.16983C30.7022 4.33967 30.7022 4.46055 30.7022 4.51995C30.8864 4.50353 31.0747 4.48674 31.263 4.46995ZM42.0152 2.84962C42.0849 2.77304 42.1546 2.69645 42.2868 2.5688C42.6271 2.78419 42.9675 2.99959 43.3999 3.27321C43.3821 3.28995 43.4838 3.19391 43.5854 3.09787C43.511 3.13114 43.4366 3.16441 43.3622 3.19768C43.1094 2.82677 42.8565 2.45585 42.5787 2.04828C42.3898 2.26008 42.2724 2.39181 42.0455 2.52965C42.0219 2.65086 41.9983 2.77207 41.883 2.86501C41.81 2.91416 41.737 2.9633 41.664 3.01245C41.7076 3.05758 41.7512 3.10272 41.7948 3.14785C41.8496 3.05778 41.9044 2.9677 42.0152 2.84962ZM42.3259 4.07701C42.3424 4.11527 42.3589 4.15353 42.3835 4.28156C42.4954 4.71908 42.6072 5.1566 42.7191 5.59412C42.7808 5.57523 42.8425 5.55633 42.9042 5.53744C42.7266 5.04794 42.5489 4.55844 42.3259 4.07701ZM33.9985 3.36174C34.5192 3.48716 35.04 3.61259 35.5608 3.73801C35.5723 3.69098 35.5837 3.64396 35.5952 3.59693C34.2627 3.24357 32.9303 2.8902 31.5979 2.53683C31.5831 2.59118 31.5683 2.64553 31.5535 2.69988C32.3433 2.90231 33.133 3.10475 33.9985 3.36174ZM44.651 4.62098C44.8058 4.46073 44.9605 4.30047 45.1607 4.09323C44.7236 4.05852 44.3994 4.03277 44.0752 4.00703C44.0724 4.05773 44.0697 4.10844 44.0669 4.15915C44.2382 4.17623 44.4095 4.19331 44.5808 4.2104C44.6087 4.24878 44.6367 4.28716 44.6646 4.32553C44.3257 4.58272 43.9867 4.8399 43.6478 5.09709C43.6951 5.15649 43.7425 5.2159 43.7898 5.27531C44.1173 5.29658 44.4449 5.31786 44.7725 5.33913C44.7742 5.29218 44.7758 5.24523 44.7775 5.19828C44.6073 5.17939 44.4371 5.16049 44.1753 5.13143C44.3533 4.93818 44.4722 4.8091 44.651 4.62098ZM32.8629 1.76132C33.3065 1.87208 33.7492 1.98694 34.194 2.09269C35.0174 2.28845 35.3616 2.32572 35.4343 2.25746C34.5004 2.01562 33.5523 1.77008 32.6041 1.52455C32.595 1.54974 32.5859 1.57494 32.5768 1.60014C32.6425 1.65316 32.7081 1.70617 32.8629 1.76132ZM45.9086 6.42887C45.8126 6.29289 45.7166 6.15691 45.6089 6.00432C45.4818 6.12457 45.3569 6.24271 45.3235 6.27438C45.6753 6.59411 46.0095 6.89784 46.3443 7.20208C46.3896 7.16564 46.5003 7.07669 46.5818 7.0112C46.3533 6.81866 46.1581 6.65423 45.9086 6.42887ZM43.263 5.14794C43.263 5.36136 43.263 5.57478 43.263 5.87773C43.4588 5.71765 43.5882 5.61181 43.7176 5.50598C43.6455 5.49099 43.5733 5.47599 43.5011 5.461C43.3964 5.02752 43.2917 4.59404 43.187 4.16056C43.1399 4.16871 43.0928 4.17687 43.0458 4.18503C43.1023 4.47881 43.1589 4.77259 43.263 5.14794ZM45.4751 4.36194C45.5307 4.64092 45.5862 4.9199 45.6418 5.19887C45.6938 5.18947 45.7458 5.18006 45.7979 5.17066C45.7117 4.63749 45.6255 4.10433 45.5312 3.52135C45.4036 3.65817 45.2978 3.77154 45.2236 3.8511C45.3221 4.01453 45.3983 4.14094 45.4751 4.36194ZM46.4619 5.3169C46.3635 4.8031 46.2651 4.28931 46.1667 3.77551C46.1105 3.78841 46.0543 3.8013 45.998 3.8142C46.1305 4.3398 46.2629 4.86541 46.4619 5.3169ZM47.9761 10.0328C47.8646 10.0431 47.753 10.0534 47.7651 10.0522C47.8236 10.3729 47.8668 10.61 47.9159 10.8788C47.9574 10.8788 48.0757 10.8788 48.1959 10.8788C48.131 10.6112 48.0708 10.3628 47.9761 10.0328ZM44.1927 3.5229C44.3963 3.54121 44.5999 3.55951 44.8034 3.57781C44.5721 3.41237 44.3258 3.34779 44.0753 3.31247C44.0259 3.30551 43.9605 3.41136 43.9025 3.46518C43.966 3.48434 44.0295 3.5035 44.1927 3.5229ZM44.3435 5.94563C44.5408 5.97314 44.738 6.00065 44.9353 6.02816C44.9397 5.97871 44.944 5.92925 44.9484 5.8798C44.7104 5.84047 44.4732 5.79237 44.2336 5.77018C44.1923 5.76635 44.1408 5.87262 44.094 5.92803C44.1472 5.93366 44.2004 5.93928 44.3435 5.94563ZM37.8753 1.67334C37.7646 1.61861 37.6539 1.56388 37.4415 1.45882C37.5512 1.74197 37.4743 2.10325 37.8753 1.67334ZM46.8074 6.53867C46.4646 6.86881 46.8066 6.80777 46.9947 6.86513C46.9947 6.71914 46.9947 6.59613 46.9947 6.47312C46.9598 6.47438 46.9248 6.47565 46.8074 6.53867ZM36.7774 0.79732C36.7862 0.862765 36.7949 0.928209 36.8037 0.993653C36.8622 0.982943 36.9207 0.972233 36.9792 0.961524C36.9368 0.886821 36.8944 0.812119 36.7774 0.79732ZM47.5017 7.62556C47.6196 7.58197 47.7375 7.53838 47.8553 7.49479C47.8206 7.44347 47.7858 7.39216 47.7511 7.34084C47.6874 7.40581 47.6237 7.47077 47.5017 7.62556ZM41.1239 1.9788C41.2035 1.98529 41.283 1.99178 41.3626 1.99827C41.3272 1.89421 41.2917 1.79015 41.2367 1.62868C41.1413 1.76811 41.0831 1.85312 41.1239 1.9788ZM42.4251 3.10207C42.4151 3.16657 42.4051 3.23107 42.3951 3.29556C42.4264 3.25189 42.4576 3.20821 42.4251 3.10207ZM41.0404 2.7311C41.0483 2.77036 41.0561 2.80963 41.064 2.8489C41.0908 2.84066 41.1416 2.82778 41.141 2.82486C41.1303 2.77033 41.1136 2.71698 41.0404 2.7311ZM43.4907 2.23294C43.4411 2.22022 43.392 2.20401 43.3416 2.19809C43.3328 2.19706 43.3189 2.23935 43.3074 2.26164C43.3503 2.27564 43.3933 2.28964 43.4907 2.23294ZM41.9672 1.79523C42.0184 1.81312 42.0694 1.83225 42.1218 1.84542C42.1246 1.84612 42.1401 1.79641 42.1496 1.77017C42.1115 1.7599 42.0734 1.74964 41.9672 1.79523ZM36.7125 1.83002C36.7613 1.81099 36.8101 1.79196 36.8589 1.77293C36.8168 1.76326 36.7748 1.75359 36.7125 1.83002ZM35.4113 1.2999C35.4191 1.33917 35.427 1.37844 35.4349 1.41771C35.4617 1.40947 35.5124 1.39659 35.5118 1.39367C35.5012 1.33913 35.4845 1.28578 35.4113 1.2999ZM46.8317 7.49229C46.7869 7.52126 46.7421 7.55023 46.6973 7.5792C46.7601 7.57336 46.8228 7.56752 46.8317 7.49229ZM45.4148 7.05478C45.4078 7.09516 45.4008 7.13554 45.3937 7.17593C45.4353 7.16919 45.4809 7.16984 45.5162 7.15121C45.5267 7.14562 45.5088 7.08624 45.4148 7.05478ZM47.7953 6.63662C47.7458 6.62389 47.6966 6.60768 47.6463 6.60176C47.6375 6.60073 47.6236 6.64302 47.612 6.66531C47.655 6.67931 47.6979 6.69331 47.7953 6.63662ZM46.3633 6.19492C46.3982 6.19951 46.4579 6.21701 46.4635 6.20631C46.4819 6.17121 46.4806 6.12588 46.4869 6.08448C46.4467 6.09175 46.4064 6.09902 46.3633 6.19492ZM40.1855 3.57619C40.2104 3.58495 40.2353 3.59371 40.2603 3.60247C40.2525 3.57794 40.2448 3.55341 40.1855 3.57619ZM35.2029 1.70369C35.1787 1.69468 35.1545 1.68567 35.1303 1.67665C35.1378 1.70195 35.1453 1.72726 35.2029 1.70369ZM35.7548 3.79543C35.7306 3.78642 35.7064 3.77741 35.6822 3.7684C35.6897 3.7937 35.6972 3.819 35.7548 3.79543Z" fill="white"/>
<path d="M29.2582 17.3862C29.1061 16.7142 28.954 16.0422 28.8018 15.3702C28.8455 15.3306 28.8892 15.2911 28.9329 15.2515C29.0509 15.3699 29.2335 15.4689 29.2759 15.6098C29.4908 16.3253 29.6694 17.0516 29.8523 17.7422C30.0406 17.6233 30.0406 17.6233 29.4749 15.5151C29.8701 15.3845 29.9235 15.3972 30.0106 15.7085C30.1678 16.2704 30.3496 16.8299 30.4419 17.4031C30.4781 17.6278 30.3132 17.8917 30.2163 18.128C30.1672 18.2477 30.0654 18.3459 29.9874 18.4537C30.0201 18.4872 30.0528 18.5206 30.0855 18.554C30.2078 18.4475 30.3365 18.3472 30.4516 18.2333C30.9996 17.6904 31.5928 17.1831 32.0746 16.5865C32.4898 16.0726 32.9415 16.0318 33.4937 16.2034C33.6264 16.2446 33.7528 16.3061 33.8863 16.4881C33.5188 16.4881 33.1513 16.4881 32.7837 16.4881C32.7853 16.5424 32.7869 16.5968 32.7884 16.6511C32.9097 16.642 33.0387 16.6029 33.1502 16.6315C33.2899 16.6674 33.4152 16.7589 33.5467 16.8263C33.4443 16.9062 33.3416 16.9858 33.2394 17.066C33.0996 17.1756 32.9602 17.2856 32.7716 17.4341C33.0746 17.6577 33.3293 17.8585 33.5972 18.04C33.8806 18.232 34.1765 18.4056 34.4275 18.6836C34.0957 18.6297 33.7639 18.5758 33.4321 18.5219C33.4278 18.5709 33.4235 18.6199 33.4193 18.6689C34.7625 18.9768 36.1058 19.2847 37.5359 19.6126C37.8299 20.7305 38.1539 21.963 38.4779 23.1955C38.4988 23.2058 38.5196 23.2161 38.5404 23.2264C38.5404 23.0624 38.5738 22.8901 38.535 22.7357C38.2689 21.6749 37.9877 20.6178 37.7113 19.5594C37.752 19.5172 37.7927 19.4749 37.8334 19.4326C37.9529 19.5207 38.148 19.5874 38.1802 19.7002C38.5251 20.9087 38.8442 22.1244 39.2428 23.3635C39.2428 23.2094 39.2751 23.047 39.2375 22.9027C38.988 21.9459 38.721 20.9936 38.4665 20.0381C38.4253 19.8836 38.4179 19.7202 38.3915 19.5376C38.6626 19.4577 38.7903 19.4128 38.8723 19.7901C39.1164 20.9119 39.4412 22.0163 39.7407 23.1258C39.7746 23.2517 39.8485 23.3668 40.0175 23.4544C39.879 22.8826 39.7479 22.3088 39.5999 21.7395C39.4312 21.0902 39.2369 20.4474 39.079 19.7956C39.0489 19.6714 39.1365 19.5188 39.1698 19.3792C39.2787 19.4713 39.4531 19.5445 39.4861 19.6585C39.732 20.5072 39.947 21.3648 40.1778 22.218C40.2746 22.5759 40.423 22.9247 40.4733 23.288C40.4941 23.438 40.3577 23.6904 40.2225 23.7599C40.0681 23.8392 39.7355 24.1887 39.6963 23.5398C39.4957 23.7558 39.3627 23.8991 39.2616 24.0763C39.1403 24.1101 38.987 24.1101 38.8222 24.0725C38.7668 23.9376 38.7228 23.8404 38.6319 23.6395C38.5318 23.8524 38.4712 23.9813 38.4106 24.1101C38.2573 24.1101 38.104 24.1101 37.9392 24.0725C37.8838 23.9376 37.8398 23.8404 37.7489 23.6395C37.6488 23.8524 37.5882 23.9813 37.5276 24.1101C37.3743 24.1101 37.221 24.1101 37.0217 24.1101C36.9757 23.9974 36.9757 23.8847 36.9757 23.7695C36.2456 24.0257 35.871 23.8942 35.6252 23.3484C35.3533 23.4334 35.0846 23.5173 34.6813 23.6434C34.8118 23.3825 34.8645 23.2771 34.9396 23.1269C34.4551 23.1269 34.0046 23.1269 33.4361 23.1269C33.6188 22.8988 33.7052 22.7909 33.7855 22.6907C33.1196 22.5442 33.4668 21.8707 32.9994 21.4473C33.1342 21.9952 33.2376 22.4152 33.3424 22.841C32.8014 22.8458 32.7276 22.7079 32.506 21.3342C32.4611 21.3372 32.4161 21.3402 32.3712 21.3432C32.4348 21.7382 32.4985 22.1333 32.5645 22.5426C31.7577 22.3211 32.0008 21.6247 31.8557 21.1129C31.8037 21.1149 31.7517 21.1169 31.6997 21.1189C31.7242 21.4333 31.7488 21.7478 31.7746 22.0782C31.1188 21.9929 31.2558 21.3592 30.9686 20.9983C30.9853 21.1618 31.0019 21.3252 31.0186 21.4887C30.9768 21.5184 30.9351 21.548 30.8933 21.5777C30.709 21.3393 30.5248 21.101 30.3216 20.8382C30.0952 21.0159 29.8377 20.9948 29.6419 20.5504C29.6195 20.6774 29.6226 20.8168 29.5679 20.928C29.5097 21.0466 29.3969 21.1385 29.2498 21.3097C29.1546 20.9842 29.0813 20.7338 28.9341 20.482C28.8766 20.519 28.8931 20.5572 28.9096 20.5955C28.948 20.7678 29.0241 20.9422 29.015 21.112C29.0047 21.3047 28.918 21.4932 28.8646 21.6836C28.7866 21.6746 28.7086 21.6657 28.6306 21.6568C28.5417 21.1448 28.4529 20.6328 28.3726 20.1705C28.2887 19.9599 28.2137 19.7858 28.1508 19.6075C28.1214 19.5241 28.1124 19.433 28.0994 19.3446C28.0286 18.8653 27.9594 18.3857 27.882 17.8536C27.8418 17.7496 27.6665 17.4827 27.7247 17.4148C28.072 17.0095 27.8116 16.6522 27.7079 16.2756C27.5958 15.8683 27.4969 15.4573 27.3841 15.0161C27.6644 14.9438 27.8647 14.9124 27.937 15.3266C28.0367 15.8972 28.2241 16.4522 28.3641 17.0163C28.3985 17.1549 28.3953 17.3028 28.4801 17.4369C28.6534 16.6239 28.1289 15.9047 28.193 15.0091C28.3371 15.1724 28.5518 15.3131 28.6127 15.5029C28.8228 16.1578 28.9793 16.8298 29.2319 17.4981C29.2912 17.4627 29.2747 17.4245 29.2582 17.3862ZM35.8198 22.345C35.8033 22.3067 35.7868 22.2685 35.7622 22.1392C35.6745 21.7222 35.5869 21.3052 35.4837 20.8144C35.3378 20.9758 35.2468 21.0765 35.2015 21.1267C35.2974 21.2708 35.3823 21.3652 35.4297 21.4757C35.5534 21.7644 35.6606 22.0601 35.8198 22.345ZM37.9169 22.8955C37.9004 22.8572 37.8839 22.8189 37.8593 22.6899C37.6354 21.8139 37.4115 20.938 37.1877 20.062C37.1403 20.0741 37.093 20.0861 37.0457 20.0982C37.1328 20.4507 37.2056 20.8074 37.3101 21.1547C37.4867 21.7408 37.6834 22.3209 37.9169 22.8955ZM34.7015 19.5966C34.9919 19.6727 35.2945 19.719 35.5699 19.8316C36.047 20.0267 36.4625 20.2702 36.571 20.8693C36.6896 21.5238 36.904 22.161 37.0767 22.8057C37.1271 22.7951 37.1774 22.7845 37.2278 22.7739C36.9881 21.7974 36.7483 20.8208 36.5174 19.88C35.5652 19.6475 34.6148 19.4153 33.6644 19.1831C33.6552 19.2328 33.6459 19.2825 33.6367 19.3321C33.9604 19.4201 34.2841 19.5081 34.7015 19.5966ZM33.9436 20.0347C34.4176 20.1738 34.8961 20.2999 35.363 20.46C35.4996 20.5069 35.6029 20.6504 35.747 20.7708C35.8226 20.6848 35.9353 20.5567 36.036 20.4422C35.4153 20.2635 34.8406 20.0873 34.2587 19.9395C34.1374 19.9087 33.9893 19.9829 33.9436 20.0347ZM36.2003 21.7802C36.2545 22.0536 36.3087 22.3271 36.3629 22.6005C36.4232 22.5861 36.4835 22.5716 36.5439 22.5572C36.4168 22.0606 36.2897 21.5641 36.1626 21.0676C36.1197 21.0748 36.0768 21.0819 36.0339 21.0891C36.0759 21.292 36.118 21.4949 36.2003 21.7802ZM34.7372 22.4915C34.5308 22.4298 34.3243 22.3681 34.0323 22.2808C34.0196 22.2944 33.9274 22.3937 33.7619 22.5721C34.1386 22.5721 34.4206 22.5721 34.7372 22.4915ZM34.316 21.4678C34.466 21.5309 34.6161 21.594 34.8207 21.68C34.8688 21.6231 34.956 21.5196 35.0426 21.4168C34.8003 21.3592 34.5959 21.2967 34.387 21.272C34.3423 21.2667 34.2813 21.3979 34.316 21.4678ZM34.0532 20.8038C34.2884 20.8274 34.5237 20.8511 34.7589 20.8747C34.4929 20.8315 34.2764 20.2892 34.0532 20.8038ZM33.3052 20.6717C33.4066 20.5579 33.5079 20.4441 33.654 20.2802C33.4482 20.2802 33.3194 20.2802 33.2049 20.2802C33.2049 20.4333 33.2049 20.5631 33.3052 20.6717ZM32.0527 19.8169C31.9849 19.9149 31.9172 20.0129 31.8494 20.1109C31.9157 20.1414 31.982 20.172 32.0483 20.2025C32.0845 20.0746 32.1208 19.9467 32.0527 19.8169ZM31.2172 19.027C31.1328 19.1226 31.0485 19.2183 30.9103 19.375C31.1338 19.3651 31.2563 19.3597 31.3841 19.354C31.3602 19.2265 31.3409 19.1232 31.2172 19.027ZM32.6669 19.5499C32.6046 19.5411 32.5422 19.5324 32.4799 19.5236C32.475 19.5784 32.47 19.6332 32.4651 19.688C32.5328 19.6778 32.6005 19.6676 32.6669 19.5499ZM31.1588 20.1491C31.1648 20.0866 31.1707 20.0242 31.1767 19.9617C31.1449 20.0091 31.1132 20.0564 31.1588 20.1491ZM32.555 20.4473C32.5201 20.4427 32.4605 20.4252 32.4549 20.4359C32.4365 20.471 32.4377 20.5163 32.4314 20.5577C32.4717 20.5505 32.5119 20.5432 32.555 20.4473ZM36.4663 23.381C36.4175 23.4 36.3687 23.419 36.3199 23.4381C36.362 23.4477 36.404 23.4574 36.4663 23.381ZM33.339 19.6261C33.3739 19.6307 33.4336 19.6482 33.4392 19.6375C33.4576 19.6024 33.4563 19.5571 33.4627 19.5157C33.4224 19.523 33.3821 19.5302 33.339 19.6261ZM32.1384 19.1772C32.1306 19.1379 32.1227 19.0986 32.1148 19.0594C32.088 19.0676 32.0373 19.0805 32.0378 19.0834C32.0485 19.1379 32.0652 19.1913 32.1384 19.1772Z" fill="white"/>
<path d="M5.62089 20.138C4.67173 19.9201 3.70349 19.7584 2.7856 19.4484C2.52657 19.3609 2.41495 18.8392 2.29703 18.4576C3.23797 18.5604 4.1176 18.7222 5.01508 18.8873C4.98018 18.8321 4.96072 18.7599 4.92457 18.7504C4.30987 18.5874 3.69437 18.4269 3.07631 18.2771C2.71085 18.1886 2.52374 17.9376 2.42645 17.6039C2.21194 16.8682 2.0055 16.1301 1.75136 15.237C1.71046 15.4792 1.65668 15.5921 1.68144 15.6839C1.86491 16.3646 2.08125 17.0369 2.24757 17.7214C2.29679 17.924 2.21888 18.1573 2.19922 18.3766C2.09224 18.3047 1.9147 18.252 1.88915 18.1581C1.62033 17.1702 1.37579 16.1758 1.1039 15.1016C0.833065 15.7752 1.41966 16.3218 1.30358 16.9128C1.2499 16.9255 1.19622 16.9382 1.14253 16.9509C0.986983 16.264 0.960906 15.5032 0.625717 14.9188C0.434752 14.5858 0.721517 14.0622 0.154163 13.948C0.110382 13.8642 0.110382 13.7468 0.148145 13.6178C0.275314 13.5127 0.364721 13.4193 0.546441 13.2295C0.31016 13.2791 0.210271 13.3001 0.110382 13.3211C0.110382 13.1324 0.110382 12.9436 0.143458 12.7395C0.302716 12.5532 0.428898 12.3823 0.551072 12.2171C0.547065 12.2227 0.53755 12.2326 0.53755 12.2326C0.660818 12.1649 0.806352 12.1201 0.903685 12.0258C1.4702 11.4767 2.01241 10.902 2.59451 10.3704C2.72297 10.2531 2.99027 10.2122 3.17443 10.2446C3.69694 10.3367 4.20951 10.4849 4.75188 10.6173C4.66232 10.9372 4.56037 11.108 4.1577 10.948C3.75668 10.7888 3.30986 10.7443 2.88312 10.6495C2.87007 10.7131 2.85702 10.7767 2.84397 10.8404C3.20866 10.9074 3.59175 10.9266 3.93217 11.0568C4.1999 11.1592 4.79289 11.0128 4.59198 11.6581C4.04009 11.7074 3.53836 11.1485 2.98868 11.5373C3.8828 11.4964 4.61494 11.8207 4.59478 12.347C4.1621 12.2353 3.73782 12.1259 3.31353 12.0164C3.30045 12.0633 3.28736 12.1102 3.27427 12.1571C3.6057 12.2515 3.93217 12.3919 4.26985 12.428C4.65206 12.4689 4.66656 12.6639 4.61399 12.9443C4.19952 12.8866 3.79497 12.8304 3.39043 12.7741C3.38524 12.8211 3.38006 12.868 3.37488 12.915C4.16492 12.8629 4.74578 13.1821 4.68839 13.637C4.33989 13.5701 3.99141 13.5032 3.64292 13.4363C3.63418 13.4894 3.62545 13.5426 3.61671 13.5957C3.88351 13.6509 4.15316 13.6954 4.41632 13.7645C4.67915 13.8335 5.0061 13.8547 4.95076 14.3306C4.57314 14.2576 4.21522 14.1884 3.85729 14.1192C3.8491 14.1563 3.84092 14.1935 3.83274 14.2306C4.13282 14.33 4.4334 14.5123 4.73289 14.5105C5.27173 14.5073 5.31231 14.9245 5.26261 15.1957C5.214 15.461 4.96392 15.7981 4.52369 15.5384C4.43047 15.4834 4.24248 15.5882 4.11216 15.7182C4.28283 15.7351 4.4535 15.752 4.62418 15.7689C4.65911 15.8142 4.69405 15.8596 4.72899 15.9049C4.38313 16.1547 4.03727 16.4045 3.6914 16.6543C3.73757 16.7103 3.78374 16.7663 3.82992 16.8222C4.11314 16.8428 4.39636 16.8634 4.67958 16.8841C4.69138 16.8576 4.70318 16.8311 4.71498 16.8047C4.58121 16.7393 4.44743 16.6739 4.32345 16.6133C4.69201 16.2602 5.0458 15.9212 5.44454 15.5392C5.52432 15.9081 5.60393 16.2761 5.68354 16.6441C5.71186 16.6529 5.74018 16.6617 5.76851 16.6705C5.80885 16.5251 5.8492 16.3797 5.929 16.0922C6.07871 16.411 6.18474 16.6368 6.24812 16.9082C5.90509 17.2217 5.60469 17.4895 5.28019 17.7788C5.69416 18.0905 6.04028 18.3512 6.3864 18.6118C6.35029 18.6676 6.31418 18.7234 6.27808 18.7793C6.37377 18.6687 6.46946 18.558 6.56515 18.4474C6.50082 18.4872 6.43648 18.527 6.37214 18.5668C6.20093 18.2487 6.02972 17.9307 5.8585 17.6126C5.81322 17.6431 5.76793 17.6735 5.72264 17.704C5.93289 17.483 6.14313 17.262 6.35337 17.0411C6.4465 17.0358 6.59188 16.9903 6.62416 17.032C6.81215 17.2747 6.93646 17.5772 7.15504 17.7824C7.35185 17.9672 7.64914 18.0415 7.88827 18.1871C8.00458 18.2579 8.08929 18.3803 8.25307 18.5442C8.54085 18.6502 8.94426 18.7988 9.44302 18.9825C8.88595 19.4976 8.36826 19.9762 7.95608 20.3573C8.11721 20.6463 8.24562 20.8056 8.30009 20.987C8.50255 21.6611 8.68069 22.3425 8.89068 23.1036C8.22655 22.9364 7.64765 22.7907 7.02936 22.635C7.33626 22.3462 7.60541 22.0929 7.85859 21.8547C7.86643 21.8769 8.2146 22.4165 8.23724 22.4186C8.13603 22.0747 8.03468 21.7309 7.88928 21.2377C7.58788 21.5844 7.35996 21.8696 7.10712 22.1309C6.8563 22.3901 6.65758 22.7349 6.22869 22.2351C6.00327 21.9725 5.51576 21.9351 5.14956 21.7887C5.11315 21.7741 5.09735 21.7083 5.02777 21.5929C5.38233 21.6607 5.67475 21.7167 5.96716 21.7726C5.28937 21.3189 4.35084 21.4467 3.79645 20.5999C4.52599 20.7701 5.17423 20.9213 5.82247 21.0724C4.90756 20.5283 3.71434 20.7082 3.00229 19.7209C3.72286 19.9123 4.44147 20.1116 5.16558 20.2886C5.31919 20.3261 5.49291 20.2817 5.71065 20.2218C5.77847 20.1316 5.793 20.0947 5.80753 20.0578C5.74532 20.0845 5.6831 20.1113 5.62089 20.138ZM2.37006 15.6367C2.38654 15.6749 2.40303 15.7132 2.42764 15.8419C2.52792 16.2449 2.62819 16.648 2.72847 17.051C2.79416 17.0301 2.85984 17.0092 2.92552 16.9883C2.75548 16.5351 2.58543 16.0818 2.37006 15.6367ZM3.06201 18.9323C2.90277 18.8914 2.74353 18.8506 2.58428 18.8097C2.57239 18.8591 2.5605 18.9085 2.5486 18.9579C3.49744 19.2029 4.44627 19.4478 5.39511 19.6928C5.40713 19.6425 5.41916 19.5922 5.43119 19.5419C4.67189 19.3399 3.91259 19.1379 3.06201 18.9323ZM4.6413 18.2267C4.79461 18.2267 4.94791 18.2267 5.10121 18.2267C5.0937 18.1971 5.0862 18.1674 5.07869 18.1378C4.409 17.9588 3.73931 17.7799 2.98307 17.5778C2.98857 17.5712 2.90284 17.6743 2.82358 17.7695C3.42636 17.9083 3.99488 18.0391 4.6413 18.2267ZM2.78843 13.9621C2.66117 13.7923 2.54011 13.5441 2.35315 13.9641C2.6902 14.2319 3.03806 14.5083 3.40675 14.8012C3.41404 14.7947 3.54204 14.6788 3.59243 14.6332C3.33494 14.4179 3.0955 14.2178 2.78843 13.9621ZM3.3078 17.2008C3.32684 17.2602 3.34587 17.3196 3.3649 17.379C3.51724 17.2602 3.66957 17.1414 3.8016 17.0384C3.20632 16.6923 3.38835 16.1406 3.20197 15.7131C3.13269 15.9033 3.11117 16.0939 3.13772 16.2776C3.17792 16.5558 3.25157 16.8292 3.3078 17.2008ZM4.38523 17.5045C4.54923 17.5171 4.71323 17.5297 4.87722 17.5423C4.87741 17.5044 4.87759 17.4666 4.87777 17.4287C4.62476 17.3806 4.37175 17.3325 4.00118 17.2621C4.16488 17.3952 4.23076 17.4488 4.38523 17.5045ZM4.33306 14.8626C4.21917 14.8772 4.10529 14.8917 3.9914 14.9063C3.99374 14.9343 3.99608 14.9623 3.99842 14.9902C4.26393 15.0218 4.52944 15.0534 4.79496 15.085C4.79722 15.0642 4.79949 15.0433 4.80176 15.0224C4.67655 14.9699 4.55134 14.9174 4.33306 14.8626ZM7.64481 19.1747C7.74997 19.0635 7.85513 18.9522 7.99953 18.7994C7.80503 18.7994 7.67651 18.7994 7.48079 18.7994C7.51358 18.9482 7.54651 19.0977 7.64481 19.1747ZM1.80609 14.067C1.83141 14.2195 1.85673 14.372 1.88909 14.5669C2.02755 14.4222 2.14552 14.2989 2.27627 14.1623C2.11014 14.0891 1.98685 14.0347 1.80609 14.067ZM7.06184 18.2245C7.05557 18.1234 7.0493 18.0224 7.03293 17.7584C6.83122 17.9437 6.72339 18.0428 6.54733 18.2045C6.81061 18.2682 6.9118 18.2927 7.06184 18.2245ZM1.10376 13.385C1.14158 13.4355 1.1794 13.4861 1.21723 13.5366C1.25995 13.5022 1.30267 13.4678 1.34539 13.4334C1.29073 13.3931 1.23607 13.3528 1.10376 13.385ZM2.57126 14.6483C2.52645 14.6772 2.48164 14.7062 2.43683 14.7352C2.49957 14.7294 2.56231 14.7235 2.57126 14.6483ZM1.29992 14.2782C1.24869 14.2603 1.19777 14.2411 1.14535 14.228C1.14257 14.2273 1.12707 14.277 1.11749 14.3032C1.1556 14.3135 1.19371 14.3238 1.29992 14.2782ZM3.33585 13.7953C3.38708 13.8131 3.438 13.8323 3.49042 13.8454C3.4932 13.8461 3.5087 13.7964 3.51828 13.7702C3.48018 13.7599 3.44207 13.7497 3.33585 13.7953ZM6.51498 17.6458C6.46542 17.6331 6.41628 17.6169 6.36591 17.611C6.35712 17.6099 6.34321 17.6522 6.33166 17.6745C6.37461 17.6885 6.41755 17.7025 6.51498 17.6458ZM2.06452 13.4251C2.10933 13.3962 2.15414 13.3672 2.19894 13.3382C2.1362 13.3441 2.07346 13.3499 2.06452 13.4251ZM5.55139 18.5015C5.50658 18.5305 5.46177 18.5594 5.41696 18.5884C5.4797 18.5826 5.54244 18.5767 5.55139 18.5015ZM5.18081 18.9881C5.15661 18.9791 5.13241 18.9701 5.10821 18.9611C5.11571 18.9864 5.12321 19.0117 5.18081 18.9881Z" fill="white"/>
<path d="M18.1936 5.70984C17.8496 5.60446 17.4887 5.53579 17.1645 5.38739C15.7116 4.7223 14.1014 4.60964 12.6123 4.07629C12.5653 4.05946 12.5047 4.08041 12.5516 4.17598C12.4541 4.28853 12.3443 4.5056 12.2611 4.49589C11.8577 4.44882 11.4612 4.34194 11.0628 4.25385C10.9617 4.23148 10.8624 4.20032 10.7335 4.16539C10.7168 4.35686 10.7028 4.51657 10.6723 4.86526C10.4831 4.67921 10.3066 4.58712 10.2772 4.4609C10.1991 4.12637 9.82507 3.79722 10.2069 3.42632C10.2297 3.40418 10.2169 3.30266 10.1867 3.27549C9.47423 2.63356 9.65855 1.654 9.29104 0.880057C9.23109 0.753797 9.39084 0.523748 9.44904 0.34167C9.51367 0.352898 9.5783 0.364126 9.64293 0.375354C9.87574 1.27962 10.1086 2.18389 10.3277 3.03494C11.033 3.21217 11.7493 3.38743 12.4631 3.57262C13.5612 3.85755 14.6565 4.15338 15.7563 4.43194C15.8685 4.46037 16.0027 4.40252 16.1843 4.37644C15.3582 4.16342 14.6203 3.97646 13.8844 3.78256C13.0106 3.55236 12.1419 3.30241 11.2644 3.08753C10.6974 2.94866 10.3553 2.64772 10.2569 2.05182C10.1853 1.61758 10.104 1.16464 9.91208 0.776571C9.7464 0.441544 9.93768 0.343177 10.0765 0.145936C10.0932 0.110077 10.1423 0.110077 10.1934 0.146357C10.3673 0.734363 10.5392 1.28609 10.711 1.83782C10.7383 1.82784 10.7655 1.81785 10.7928 1.80787C10.6904 1.24194 10.588 0.676009 10.4857 0.110077C10.6034 0.110077 10.7211 0.110077 10.883 0.156283C11.0547 0.85044 11.1823 1.49839 11.3037 2.11528C11.4781 2.13253 11.7327 2.12682 11.9708 2.18653C13.0665 2.46137 14.1567 2.7584 15.2518 3.03611C15.3923 3.07173 15.5496 3.04099 15.6992 3.04099C15.4582 2.87051 15.2167 2.84431 14.9838 2.78425C14.1124 2.55943 13.2357 2.34931 12.3782 2.07914C12.035 1.97102 11.7349 1.72431 11.4204 1.53229C11.386 1.51129 11.3836 1.43518 11.3701 1.38366C11.2587 0.959263 11.1483 0.534635 11.0375 0.110077C11.4085 0.110077 11.7795 0.110077 12.1655 0.147776C12.2464 0.481447 12.3124 0.777417 12.3638 1.00797C13.2768 1.22457 14.195 1.44243 15.118 1.68284C15.1604 1.69187 15.1981 1.67834 15.2293 1.61216C14.3712 1.32782 13.5195 1.09614 12.6678 0.864454C12.6779 0.789508 12.688 0.714562 12.698 0.639616C12.9351 0.639616 13.1796 0.602493 13.4077 0.647496C13.8556 0.735822 14.29 0.896545 14.7393 0.970157C14.8917 0.995119 15.0724 0.847849 15.2402 0.779285C15.326 0.714041 15.4119 0.648796 15.527 0.56126C15.7984 0.844249 16.0733 1.13097 16.3525 1.4221C16.8922 0.993025 17.2426 1.10979 17.5791 1.88993C18.0439 1.62765 18.8054 1.92751 18.837 2.3698C18.9759 2.3828 19.1431 2.34947 19.2416 2.41653C19.5827 2.64883 19.9023 2.91301 20.2241 3.17241C20.292 3.22706 20.3949 3.33085 20.3797 3.38166C20.1336 4.20452 20.7287 4.88018 20.7721 5.65313C20.7875 5.92734 20.9258 6.19453 21.0067 6.46529C21.1409 6.91412 21.1499 7.48975 21.4431 7.77611C21.7272 8.05354 22.304 8.03027 22.7504 8.14627C22.9037 8.18613 23.0514 8.24772 23.2017 8.29939C23.19 8.37088 23.1782 8.44236 23.1665 8.51385C22.8956 8.50187 22.6234 8.50213 22.354 8.47463C22.0563 8.44422 21.7612 8.38838 21.4502 8.42425C21.8387 8.52768 22.2273 8.63111 22.6454 8.74241C22.5184 9.03023 22.4056 9.19112 22.0414 9.04232C21.702 8.9037 21.3039 8.91391 20.9541 8.79356C20.4791 8.63012 20.3274 8.20099 20.2098 7.75244C19.8557 6.402 19.4831 5.05643 19.1303 3.70569C19.0762 3.49873 19.0888 3.27447 18.9529 3.04486C18.9364 3.19034 18.8757 3.34714 18.9099 3.47956C19.3346 5.12304 19.7755 6.76233 20.2057 8.40439C20.2856 8.70948 20.4839 8.85022 20.7763 8.91837C21.2512 9.02907 21.7219 9.1577 22.1944 9.27877C22.1975 9.32507 22.2007 9.37138 22.2038 9.41768C21.9648 9.49163 21.7258 9.56557 21.4827 9.64081C21.5567 9.66982 21.6511 9.70682 21.7537 9.74704C21.3657 10.2267 20.6154 10.0796 19.9781 9.38182C20.1743 9.36343 20.3339 9.34847 20.3453 9.34741C20.1646 9.07632 19.8703 8.79837 19.7751 8.46401C19.3196 6.86511 18.9149 5.25172 18.5007 3.64132C18.4346 3.38453 18.4116 3.11673 18.3589 2.79384C18.2188 2.9232 18.0829 3.04862 17.9471 3.17405C18.0016 3.16879 18.0562 3.16353 18.1107 3.15827C18.3694 4.02447 18.6281 4.89067 18.9025 5.80929C18.6644 5.77675 18.4653 5.74956 18.2259 5.71149C18.1854 5.70061 18.1936 5.70984 18.1936 5.70984ZM17.9918 4.42243C17.9864 4.31493 17.9811 4.20743 17.9722 4.0295C17.8151 4.20384 17.7016 4.32968 17.5727 4.47268C17.7166 4.51877 17.812 4.54933 17.9592 4.64117C17.984 4.82113 18.0089 5.00109 18.0337 5.18105C18.1046 5.16403 18.1754 5.14701 18.2463 5.12999C18.1641 4.92175 18.0819 4.71352 17.9918 4.42243ZM20.6398 7.42686C20.653 7.50597 20.6661 7.58507 20.6792 7.66418C20.7283 7.65305 20.7773 7.64192 20.8264 7.6308C20.4506 6.17958 20.0748 4.72836 19.699 3.27714C19.6378 3.2917 19.5766 3.30627 19.5154 3.32083C19.8887 4.65935 20.2621 5.99788 20.6398 7.42686ZM12.5404 2.97222C13.5511 3.23209 14.5618 3.49195 15.5725 3.75182C15.5846 3.70222 15.5967 3.65263 15.6088 3.60303C14.28 3.24752 12.9512 2.89201 11.6224 2.5365C11.6092 2.57928 11.5959 2.62205 11.5827 2.66482C11.871 2.76619 12.1593 2.86755 12.5404 2.97222ZM14.2679 2.09562C14.6676 2.17877 15.0415 2.47785 15.6114 2.2984C14.5257 2.01692 13.5779 1.77118 12.6301 1.52545C12.6165 1.57321 12.6029 1.62098 12.5893 1.66874C13.1177 1.80983 13.6462 1.95091 14.2679 2.09562ZM16.8181 1.67088C16.8081 1.73538 16.798 1.79987 16.788 1.86437C16.8193 1.82069 16.8505 1.77701 16.8181 1.67088ZM15.4856 1.43345C15.4915 1.371 15.4975 1.30855 15.5034 1.2461C15.4717 1.29343 15.4399 1.34076 15.4856 1.43345ZM15.7267 3.84433C15.7355 3.81948 15.7443 3.79463 15.7531 3.76978C15.7285 3.7775 15.7039 3.78522 15.7267 3.84433Z" fill="white"/>
<path d="M8.93167 20.5955C9.13671 21.4376 9.34184 22.2797 9.54673 23.1218C9.58764 23.29 9.62766 23.4584 9.67191 23.6425C9.39562 23.7024 9.23036 23.6827 9.14431 23.3182C8.92985 22.4096 8.63849 21.5193 8.40376 20.615C8.37039 20.4864 8.43873 20.2837 8.53191 20.179C8.83605 19.8373 9.17344 19.5251 9.4982 19.2016C9.51117 19.1887 9.52452 19.1691 9.53984 19.1668C9.64425 19.1511 9.84068 19.1252 9.84111 19.128C9.91789 19.6282 10.8453 18.8754 10.6726 19.7079C11.2894 19.306 11.6204 19.4294 11.985 20.1813C13.0103 19.4015 13.0103 19.4015 13.2383 19.5652C13.6397 19.5289 13.8981 19.4505 14.133 19.495C14.7409 19.6102 15.3582 19.7287 15.9312 19.9503C16.1891 20.05 16.4236 20.3682 16.5383 20.6417C16.714 21.0607 16.7263 21.5475 16.8991 21.9684C17.1911 22.6797 16.8365 23.1161 16.1172 23.381C16.0015 23.4236 15.8337 23.3256 15.5901 23.2698C15.3309 23.5326 14.998 23.9565 14.3985 23.7556C13.9739 23.6133 13.5485 23.4732 13.0261 23.2997C13.0564 23.2713 12.9673 23.3548 12.8856 23.4313C12.9074 23.485 12.9131 23.5318 12.9304 23.5365C13.2389 23.6208 13.5521 23.6896 13.855 23.7899C13.9081 23.8075 13.9187 23.9524 13.9833 24.0743C13.6467 24.1101 13.2757 24.1101 12.8868 24.0723C12.0343 23.2492 12.21 22.0816 11.7253 21.1521C11.7168 21.3356 11.7222 21.5223 11.7649 21.7001C11.9582 22.5048 12.162 23.307 12.362 24.1101C12.0275 24.1101 11.693 24.1101 11.3426 24.0743C11.0123 22.9579 10.6979 21.8772 10.3339 20.6259C10.3339 20.9078 10.31 21.0393 10.3377 21.1591C10.5655 22.144 10.803 23.1267 11.0375 24.1101C10.9548 24.1101 10.872 24.1101 10.7478 24.1101C10.3648 22.9323 10.0233 21.7546 9.6817 20.5768C9.66751 20.5719 9.65331 20.5671 9.63912 20.5622C9.65547 20.7683 9.64302 20.9817 9.69313 21.1793C9.9172 22.0629 10.1591 22.9419 10.3946 23.8226C10.3544 23.8616 10.3142 23.9006 10.274 23.9397C10.1246 23.8118 9.88572 23.7095 9.84028 23.5518C9.54784 22.5368 9.29771 21.5096 8.95795 20.4836C8.89869 20.519 8.91518 20.5572 8.93167 20.5955ZM15.8419 22.345C15.8254 22.3068 15.8089 22.2685 15.7843 22.1392C15.6973 21.7208 15.6103 21.3024 15.5032 20.7874C15.3219 20.9691 15.201 21.0903 15.1529 21.1385C15.2845 21.3098 15.3905 21.4095 15.4492 21.5319C15.5777 21.7995 15.6822 22.0786 15.8419 22.345ZM11.8047 23.5099C11.5636 22.6711 11.3226 21.8322 11.0816 20.9933C11.0329 21.0075 10.9842 21.0216 10.9354 21.0357C11.1912 21.9698 11.4469 22.9038 11.7027 23.8378C11.7383 23.8299 11.774 23.822 11.8097 23.8141C11.8097 23.7424 11.8097 23.6707 11.8047 23.5099ZM14.716 20.0413C14.4414 19.9863 14.1668 19.9313 13.7562 19.849C14.4145 20.3785 15.2915 20.1097 15.7484 20.7931C15.8413 20.6882 15.9555 20.5593 16.0692 20.4308C15.612 20.3101 15.2018 20.2019 14.716 20.0413ZM13.1882 22.2376C13.2542 22.5265 13.3201 22.8155 13.3795 23.0756C13.5122 22.9641 13.6704 22.8313 13.7944 22.727C13.2371 22.4843 13.3787 21.922 13.0742 21.5613C13.0957 21.7602 13.1171 21.9591 13.1882 22.2376ZM12.5828 21.6187C12.5726 21.5227 12.5625 21.4268 12.5523 21.3308C12.4898 21.3418 12.4274 21.3527 12.3649 21.3637C12.4813 21.8633 12.5976 22.3629 12.714 22.8625C12.7669 22.8515 12.8199 22.8404 12.8728 22.8293C12.7762 22.4582 12.6796 22.0872 12.5828 21.6187ZM16.2256 21.3245C16.2145 21.2379 16.2034 21.1512 16.1922 21.0646C16.1449 21.0746 16.0976 21.0846 16.0503 21.0946C16.1587 21.595 16.2671 22.0955 16.3756 22.5959C16.4366 22.5841 16.4977 22.5723 16.5587 22.5605C16.4494 22.1778 16.3402 21.7951 16.2256 21.3245ZM14.5831 22.4589C14.433 22.3972 14.283 22.3356 14.0742 22.2499C14.0296 22.3021 13.942 22.4047 13.8515 22.5107C14.059 22.57 14.2277 22.6491 14.3988 22.6544C14.4876 22.6572 14.5804 22.5294 14.5831 22.4589ZM14.7546 21.3578C14.5603 21.3456 14.366 21.3334 14.0965 21.3164C14.3808 21.4777 14.5638 21.5816 14.7937 21.7121C15.0447 21.4943 15.0447 21.4943 14.7546 21.3578ZM14.7829 20.7561C14.5284 20.7007 14.2739 20.6453 14.0194 20.5898C14.0094 20.6541 13.9995 20.7184 13.9895 20.7826C14.2542 20.8051 14.519 20.8276 14.7829 20.7561ZM14.6517 23.1193C14.453 23.1193 14.2543 23.1193 14.0556 23.1193C14.2899 23.245 14.5211 23.3027 14.7559 23.3301C14.8073 23.3361 14.8713 23.2343 14.9296 23.1822C14.8688 23.1613 14.8081 23.1405 14.6517 23.1193ZM13.3744 20.6061C13.4588 20.5104 13.5432 20.4148 13.6814 20.2581C13.4578 20.268 13.3354 20.2734 13.2075 20.2791C13.2314 20.4067 13.2508 20.5099 13.3744 20.6061ZM11.1889 19.9461C11.1789 20.0106 11.1689 20.0751 11.1589 20.1396C11.1901 20.096 11.2214 20.0523 11.1889 19.9461ZM12.5134 20.3865C12.5034 20.451 12.4934 20.5155 12.4834 20.58C12.5147 20.5363 12.5459 20.4926 12.5134 20.3865Z" fill="white"/>
<path d="M15.2193 0.758255C15.0724 0.847859 14.8917 0.995128 14.7393 0.970167C14.29 0.896555 13.8556 0.735832 13.4077 0.647505C13.1796 0.602503 12.9351 0.639625 12.698 0.639625C12.6879 0.714572 12.6779 0.789518 12.6678 0.864464C13.5195 1.09615 14.3712 1.32783 15.199 1.60403C15.1544 1.65246 15.1339 1.65638 15.1133 1.6603C14.195 1.44244 13.2768 1.22458 12.3638 1.00798C12.3124 0.777427 12.2464 0.481457 12.2161 0.147786C12.5497 0.110087 12.8477 0.110087 13.23 0.146305C13.2979 0.247483 13.2814 0.312442 13.2649 0.377402C13.8969 0.474707 14.4663 0.942741 15.1566 0.695154C15.1705 0.709175 15.1845 0.723195 15.2193 0.758255Z" fill="black"/>
<path d="M11.0099 0.110077C11.1483 0.534635 11.2587 0.959263 11.3701 1.38366C11.3836 1.43518 11.386 1.51129 11.4204 1.53229C11.7349 1.72431 12.035 1.97102 12.3782 2.07914C13.2357 2.34931 14.1124 2.55943 14.9838 2.78425C15.2166 2.84431 15.4582 2.87051 15.6992 3.04099C15.5496 3.04099 15.3923 3.07173 15.2518 3.03611C14.1567 2.7584 13.0665 2.46137 11.9708 2.18653C11.7327 2.12682 11.4781 2.13253 11.3037 2.11528C11.1823 1.49839 11.0547 0.85044 10.9272 0.156283C10.9272 0.110077 10.9823 0.110077 11.0099 0.110077Z" fill="black"/>
<path d="M15.1839 0.662603C14.4663 0.942731 13.8969 0.474697 13.2649 0.377392C13.2814 0.312432 13.2979 0.247473 13.2797 0.146295C13.5795 0.110077 13.914 0.110077 14.2987 0.110077C14.5662 0.220134 14.787 0.324384 14.9995 0.443226C15.0798 0.488158 15.1412 0.566791 15.1839 0.662603Z" fill="white"/>
<path d="M50.1104 13.1638C50.0381 13.176 49.9143 13.1544 49.9011 13.104C49.5364 11.7118 49.1829 10.3167 48.9379 8.88495C49.0711 9.32457 49.2073 9.76333 49.3369 10.204C49.5667 10.9852 49.7925 11.7675 50.0652 12.5499C50.1104 12.7392 50.1104 12.9279 50.1104 13.1638Z" fill="black"/>
<path d="M11.0743 24.1101C10.803 23.1267 10.5655 22.144 10.3377 21.1591C10.31 21.0393 10.3339 20.9077 10.3339 20.6259C10.6979 21.8772 11.0123 22.9579 11.2924 24.0743C11.2092 24.1101 11.1602 24.1101 11.0743 24.1101Z" fill="black"/>
<path d="M12.4062 24.1101C12.162 23.307 11.9582 22.5048 11.7649 21.7001C11.7222 21.5223 11.7168 21.3356 11.7253 21.1521C12.21 22.0816 12.0342 23.2492 12.8363 24.0723C12.6858 24.1101 12.5681 24.1101 12.4062 24.1101Z" fill="black"/>
<path d="M35.7202 0.110077C35.6723 0.518891 36.1509 1.05714 36.6895 1.08777C36.549 1.23545 36.4347 1.35563 36.2631 1.53602C36.1473 0.916304 35.4018 0.811612 35.3949 0.149156C35.5132 0.110077 35.596 0.110077 35.7202 0.110077Z" fill="black"/>
<path d="M0.110382 11.17C0.609351 11.3087 0.427874 11.79 0.544197 12.1867C0.53755 12.2326 0.547065 12.2227 0.513683 12.2212C0.356995 12.2933 0.233688 12.3668 0.110382 12.4404C0.110382 12.0338 0.110382 11.6273 0.110382 11.17Z" fill="white"/>
<path d="M10.4489 0.110077C10.588 0.676009 10.6904 1.24194 10.7928 1.80787C10.7655 1.81785 10.7383 1.82784 10.711 1.83782C10.5392 1.28609 10.3673 0.734363 10.2302 0.146357C10.314 0.110077 10.363 0.110077 10.4489 0.110077Z" fill="black"/>
<path d="M0.110382 12.4771C0.233688 12.3669 0.356995 12.2933 0.51769 12.2156C0.428898 12.3823 0.302716 12.5532 0.143458 12.6923C0.110382 12.6116 0.110382 12.5627 0.110382 12.4771Z" fill="black"/>
<path d="M38.452 24.1101C38.4712 23.9813 38.5318 23.8524 38.632 23.6395C38.7228 23.8403 38.7668 23.9376 38.7763 24.0725C38.6589 24.1101 38.5762 24.1101 38.452 24.1101Z" fill="black"/>
<path d="M37.569 24.1101C37.5882 23.9813 37.6488 23.8524 37.7489 23.6395C37.8398 23.8403 37.8838 23.9376 37.8932 24.0725C37.7759 24.1101 37.6931 24.1101 37.569 24.1101Z" fill="black"/>
<path d="M0.110382 13.3578C0.210271 13.3001 0.31016 13.2791 0.546441 13.2295C0.364721 13.4193 0.275314 13.5127 0.148145 13.5737C0.110382 13.4924 0.110382 13.4434 0.110382 13.3578Z" fill="black"/>
<path d="M39.2568 0.110077C39.2628 0.188714 39.232 0.267351 39.2013 0.345987C39.1583 0.299957 39.1153 0.253929 39.0726 0.158989C39.1219 0.110077 39.1709 0.110077 39.2568 0.110077Z" fill="black"/>
<path d="M46.0307 14.6509C46.1315 14.5835 46.2324 14.516 46.3819 14.4161C46.6231 15.3114 46.8524 16.1629 47.0818 17.0143C47.1404 16.0001 46.5822 15.086 46.5695 14.0828C45.8662 14.1158 45.4044 13.8828 45.3752 13.4193C45.694 13.4804 45.9951 13.5381 46.2963 13.5957C46.3063 13.5536 46.3163 13.5115 46.3263 13.4694C46.1249 13.4194 45.9075 13.4005 45.728 13.3081C45.6161 13.2506 45.5616 13.0822 45.4813 12.9635C45.5923 12.9353 45.72 12.857 45.8115 12.8874C46.3037 13.0508 46.8315 13.1729 47.2553 13.4492C47.4896 13.602 47.5837 14.0177 47.6727 14.334C47.9166 15.2014 48.1265 16.0784 48.3443 16.953C48.3824 17.1058 48.3934 17.2653 48.5163 17.4522C48.5317 17.287 48.5945 17.1094 48.5549 16.9586C48.2543 15.8144 47.9324 14.6757 47.6211 13.5342C47.5835 13.396 47.5696 13.2514 47.5479 13.1279C46.9033 12.958 46.2601 12.7952 45.6249 12.6059C45.5818 12.593 45.5986 12.3807 45.58 12.1796C46.1823 12.3195 46.7267 12.4458 47.2711 12.5722C47.2807 12.5366 47.2902 12.501 47.2997 12.4654C47.0889 12.3972 46.8802 12.3215 46.6667 12.2629C46.4443 12.2018 46.2048 12.1861 45.9962 12.0964C45.8177 12.0197 45.6723 11.8663 45.5123 11.7468C45.5507 11.67 45.589 11.5933 45.6274 11.5165C46.1796 11.6689 46.7345 11.8122 47.2829 11.9771C47.5944 12.0708 48.0077 12.114 48.1754 12.3325C48.4608 12.704 48.6236 13.1844 48.7739 13.6401C48.9782 14.2596 49.1534 14.8927 49.279 15.5321C49.3409 15.8471 49.2637 16.1893 49.2494 16.5191C49.1897 16.5179 49.13 16.5166 49.0702 16.5154C48.7746 15.428 48.4789 14.3406 48.1833 13.2532C48.1423 13.2612 48.1014 13.2691 48.0604 13.2771C48.1705 13.7652 48.2655 14.2573 48.3947 14.7404C48.5404 15.2853 48.728 15.8191 48.8767 16.3633C49.0377 16.9524 48.4257 18.4574 47.907 18.7592C47.8263 18.8062 47.66 18.8336 47.6118 18.7878C47.3699 18.5582 47.1541 18.3013 46.904 18.0263C46.8865 18.0411 46.7976 18.1162 46.674 18.2205C46.9961 18.5017 47.3077 18.7737 47.6307 19.0556C47.0995 19.5807 46.6011 20.0212 46.1682 20.5184C45.8444 20.8902 45.4984 20.9081 45.0811 20.7863C43.9765 20.4639 42.8711 20.1441 41.7634 19.8324C41.6857 19.8105 41.5868 19.8639 41.4986 19.969C42.8913 20.3397 44.284 20.7104 45.7084 21.0896C45.5595 21.3513 45.4681 21.5098 45.0572 21.3852C43.6674 20.9639 42.2384 20.6686 40.8567 20.2251C40.54 20.1234 40.3521 19.6222 40.0703 19.2604C40.5492 19.0792 40.8924 18.9493 41.2627 18.8091C41.2627 19.0122 41.2627 19.1734 41.2627 19.2891C42.5825 19.6232 43.9069 19.9616 45.2338 20.2897C45.3685 20.323 45.5188 20.2942 45.642 20.2396C44.3093 19.8907 42.9767 19.5419 41.644 19.193C41.6117 19.1419 41.5795 19.0907 41.5472 19.0396C41.7942 18.8336 42.0324 18.6153 42.2932 18.4285C42.3815 18.3653 42.5363 18.343 42.6452 18.3683C43.414 18.5467 44.1787 18.7425 44.9448 18.9327C44.9569 18.8896 44.969 18.8465 44.9811 18.8034C44.3465 18.6274 43.7096 18.459 43.0792 18.2692C42.9477 18.2297 42.8401 18.1115 42.7216 18.0295C42.8751 17.9647 43.0429 17.8236 43.1796 17.849C43.6487 17.9362 44.1047 18.0907 44.5703 18.2002C44.7367 18.2393 44.916 18.2234 45.095 18.1205C44.4551 17.977 43.8153 17.8336 43.1287 17.6797C43.5131 17.1206 43.8771 16.61 44.6682 16.8054C44.5268 16.7316 44.3854 16.6578 44.1671 16.5438C44.5841 16.1805 44.9449 15.8661 45.3865 15.4814C45.4791 15.9262 45.5594 16.3119 45.6544 16.768C46.0061 16.1374 45.3833 15.6132 45.5252 15.0179C45.2786 15.2348 45.032 15.4516 44.7854 15.6684C44.7295 15.6274 44.6737 15.5863 44.6178 15.5452C44.8102 15.2445 44.9814 14.9253 45.214 14.6596C45.257 14.6106 45.5479 14.7775 45.8216 14.8818C45.8027 14.8984 45.9074 14.8067 46.0231 14.6784C46.0342 14.6419 46.0307 14.6509 46.0307 14.6509ZM47.1347 14.8992C47.3494 15.7167 47.5642 16.5343 47.7564 17.2657C47.9326 17.0698 47.5555 14.9936 47.0266 14.2272C47.0733 14.4878 47.102 14.6474 47.1347 14.8992ZM45.0445 19.5988C45.1248 19.632 45.2084 19.6961 45.2845 19.6883C45.343 19.6823 45.3921 19.5856 45.4305 19.5451C44.4575 19.2928 43.5021 19.0452 42.5467 18.7975C42.5346 18.8445 42.5224 18.8915 42.5103 18.9386C43.3251 19.1579 44.14 19.3772 45.0445 19.5988ZM46.4458 16.9235C46.3658 16.383 46.2858 15.8425 46.2059 15.302C46.1519 15.3116 46.098 15.3212 46.0441 15.3308C46.1331 15.8931 46.222 16.4555 46.3111 17.0189C46.269 17.0426 46.3235 17.0119 46.4458 16.9235ZM45.3396 18.7919C45.2884 18.774 45.2375 18.7549 45.1851 18.7417C45.1823 18.741 45.1668 18.7907 45.1572 18.817C45.1953 18.8273 45.2334 18.8375 45.3396 18.7919ZM45.0885 18.9367C45.0802 18.9619 45.0719 18.987 45.0636 19.0122C45.088 19.004 45.1124 18.9958 45.0885 18.9367Z" fill="white"/>
<path d="M31.3739 7.88347C31.377 8.01399 31.4345 8.22071 31.3747 8.2632C30.8113 8.66343 30.326 9.11821 30.0859 9.78799C30.0706 9.83065 30.0013 9.85406 29.9333 9.90391C29.8497 9.6098 29.77 9.32953 29.669 8.97437C29.3986 9.47149 30.0583 10.071 29.3814 10.4388C29.2627 9.88317 29.1465 9.33897 29.0175 8.73506C28.9763 8.85805 28.8907 8.97961 28.9088 9.08322C28.9817 9.50203 29.1069 9.91223 29.1711 10.3319C29.2031 10.5412 29.1453 10.7641 29.1281 10.9809C29.0568 10.9843 28.9855 10.9877 28.9143 10.9911C28.7099 10.2216 28.5056 9.45218 28.2913 8.64522C28.1836 8.74248 28.0691 8.8459 28.0073 8.90176C28.1377 9.14109 28.2702 9.32004 28.3371 9.52075C28.4709 9.92256 28.5737 10.335 28.6803 10.7454C28.83 11.3209 28.6474 11.4942 28.0547 11.3422C27.6684 11.2432 27.1936 11.3394 26.975 10.8634C26.3457 11.0977 25.8458 10.6074 25.2612 10.5518C24.7919 10.5072 24.3371 10.312 23.8447 10.1751C23.9626 9.9083 24.06 9.70018 24.4617 9.87922C24.8287 10.0428 25.2415 10.1086 25.6384 10.1986C25.7754 10.2296 25.9254 10.2035 26.0702 10.1015C25.4864 9.95851 24.9026 9.81551 24.287 9.66471C24.7378 8.84695 25.4729 9.89102 25.9804 9.39024C25.5361 9.30659 25.1394 9.23191 24.7428 9.15723C24.7378 9.09451 24.7328 9.0318 24.7278 8.96909C25.0603 8.8991 25.3928 8.82912 25.7254 8.75914C25.7213 8.73127 25.7172 8.70341 25.7132 8.67554C25.5739 8.67554 25.4346 8.67554 25.1115 8.67554C25.7205 7.98117 26.2431 7.38531 26.7007 6.86351C27.0648 7.12596 27.3829 7.35525 27.7346 7.60873C27.7351 7.60717 27.7734 7.50116 27.8108 7.39722C27.5941 7.19239 27.3122 6.92591 27.0193 6.64902C27.4374 6.1451 27.8415 5.65799 28.2824 5.12653C28.3482 5.33292 28.4001 5.49557 28.4519 5.65821C28.4924 5.65407 28.5328 5.64993 28.5733 5.64579C28.5733 5.30766 28.5733 4.96952 28.5733 4.63139C28.6536 4.62187 28.734 4.61235 28.8143 4.60283C28.9177 5.14354 29.0211 5.68425 29.145 6.33224C29.1866 6.07807 29.2636 5.87669 29.2407 5.68736C29.2006 5.35593 29.1573 5.00216 29.0084 4.71232C28.8232 4.35151 29.0064 4.22473 29.3144 4.02599C29.5021 4.81785 29.6801 5.56844 29.8809 6.41518C29.9204 6.19572 30.0092 6.01131 29.9709 5.85863C29.8337 5.31151 29.6276 4.78101 29.502 4.23185C29.4509 4.00858 29.5392 3.75358 29.5641 3.51302C29.6432 3.50956 29.7224 3.50609 29.8015 3.50262C30.0556 4.5124 30.3098 5.52218 30.5692 6.55293C30.9688 6.15508 31.4967 5.71682 31.9151 5.1917C32.5028 4.45421 33.1382 4.23664 34.0077 4.67335C34.3417 4.84113 34.7405 4.88059 35.2428 5.01378C34.3324 5.61159 33.6191 4.7874 32.8588 5.00886C33.351 5.14697 33.8432 5.28507 34.3354 5.42318C34.3315 5.48206 34.3275 5.54093 34.3236 5.59981C33.8854 5.59981 33.4473 5.59981 33.0091 5.59981C33.0061 5.63333 33.003 5.66685 33 5.70037C33.2207 5.75952 33.4414 5.81866 33.7168 5.89248C33.3036 6.28528 32.9216 6.63233 32.5593 6.99873C32.3446 7.21577 32.1773 7.48047 31.956 7.68935C31.8578 7.7821 31.6789 7.78983 31.4829 7.78225C31.3866 7.62878 31.3439 7.52923 31.2815 7.38332C31.1298 7.54828 31.0094 7.6793 30.8811 7.81887C31.0812 7.8451 31.2276 7.86428 31.3739 7.88347ZM27.9229 10.6822C27.9828 10.7758 28.0426 10.8695 28.1025 10.9631C28.1417 10.9286 28.181 10.8942 28.2202 10.8597C28.1196 10.5411 28.019 10.2224 27.9066 9.86662C27.7868 9.99605 27.7174 10.0709 27.7325 10.0547C27.822 10.3048 27.8734 10.4483 27.9229 10.6822ZM26.7576 7.64259C26.8044 7.60911 26.8512 7.57564 26.8979 7.54216C26.8341 7.55075 26.7703 7.55933 26.7576 7.64259ZM27.6716 6.70952C27.7164 6.68055 27.7612 6.65158 27.806 6.62261C27.7433 6.62845 27.6805 6.63428 27.6716 6.70952ZM28.6387 5.82839C28.6472 5.80413 28.6557 5.77987 28.6642 5.7556C28.6389 5.76364 28.6135 5.77167 28.6387 5.82839Z" fill="white"/>
<path d="M24.2905 13.7587C24.9134 13.9131 25.488 14.0651 26.0626 14.2171C26.0542 14.2784 26.0457 14.3397 26.0373 14.401C25.2806 14.8174 24.5715 14.0343 23.8089 14.2491C24.4025 14.4106 24.9961 14.5721 25.5774 14.7302C25.2955 15.4278 24.8085 15.7501 24.0876 15.7192C24.2603 15.7366 24.433 15.7541 24.5447 15.7654C24.188 16.113 23.8273 16.4645 23.4331 16.8486C23.3693 16.4728 23.3054 16.0967 23.2416 15.7206C23.2032 15.7186 23.1649 15.7166 23.1266 15.7145C23.1266 15.8732 23.0933 16.0404 23.1319 16.1891C23.4031 17.2333 23.397 17.2629 22.47 17.9699C22.2401 17.0977 22.0152 16.2442 21.7902 15.3907C21.755 15.3924 21.7197 15.394 21.6845 15.3956C21.7054 15.5909 21.7015 15.7928 21.7518 15.9802C21.9122 16.5769 22.0977 17.1668 22.264 17.762C22.4508 18.4303 21.8106 18.5716 21.4852 19.0615C21.1178 17.7164 20.783 16.491 20.4483 15.2655C20.399 15.2773 20.3496 15.2891 20.3003 15.3009C20.4362 15.8219 20.565 16.3448 20.7096 16.8634C20.8991 17.543 21.1203 18.2145 21.2823 18.9002C21.3175 19.0494 21.1909 19.2673 21.0831 19.4123C20.9211 19.6301 20.7099 19.8116 20.4702 20.0598C20.0403 18.5252 19.6163 17.0484 19.2264 15.5627C19.187 15.4127 19.3532 15.209 19.424 15.0302C19.477 15.0473 19.53 15.0643 19.583 15.0814C19.9458 16.4278 20.3087 17.7742 20.6716 19.1207C20.7134 19.1132 20.7552 19.1058 20.797 19.0984C20.7433 18.8145 20.7068 18.5261 20.6327 18.2477C20.3736 17.2748 20.0846 16.3094 19.8487 15.3311C19.802 15.1374 19.8718 14.8356 20.0052 14.6927C20.6584 13.9932 21.3514 13.3307 21.8996 12.6157C21.8996 12.4867 21.8451 12.3127 21.9087 12.2363C22.256 11.8188 22.6234 11.4165 23.0054 11.0302C23.0908 10.9439 23.2784 10.8812 23.3917 10.9109C24.897 11.3055 26.3975 11.7185 27.9017 12.1276C27.4703 13.0103 27.1621 13.0886 25.9201 12.7092C25.0912 12.456 24.2516 12.2375 23.4145 12.0118C23.3708 12 23.3059 12.0662 23.1592 12.1459C24.4771 12.4933 25.6971 12.8149 26.9162 13.1363C26.7974 13.7744 26.2899 14.1104 25.735 13.9432C25.1421 13.7645 24.546 13.5955 23.9464 13.441C23.8377 13.413 23.7056 13.4754 23.5968 13.5913C23.812 13.6463 24.0272 13.7013 24.2905 13.7587ZM22.348 15.6366C22.3645 15.6749 22.381 15.7132 22.4056 15.8419C22.5058 16.2449 22.6061 16.648 22.7064 17.051C22.7723 17.0307 22.8382 17.0104 22.9041 16.9901C22.7338 16.5363 22.5636 16.0824 22.348 15.6366ZM24.3549 11.6652C23.4333 11.333 23.2493 11.3137 23.0896 11.4927C24.4836 11.8557 25.8998 12.2245 27.3161 12.5933C27.3285 12.5455 27.3409 12.4978 27.3534 12.45C26.385 12.1899 25.4166 11.9298 24.3549 11.6652ZM21.0819 15.8938C21.2871 16.6202 21.4922 17.3467 21.6974 18.0731C21.7439 18.0599 21.7905 18.0468 21.837 18.0336C21.5922 17.0808 21.3474 16.1281 21.1025 15.1753C21.0624 15.1807 21.0222 15.1862 20.982 15.1916C21.0151 15.3939 21.0482 15.5963 21.0819 15.8938ZM24.3104 12.8846C24.0162 12.8463 23.722 12.808 23.4278 12.7697C23.4247 12.8018 23.4217 12.8339 23.4187 12.866C24.3823 13.1134 25.346 13.3609 26.3097 13.6083C26.3209 13.5608 26.3322 13.5132 26.3434 13.4656C25.6926 13.2882 25.0418 13.1107 24.3104 12.8846ZM23.5696 14.475C23.2099 14.2439 22.8502 14.0129 22.4687 13.7678C22.4659 13.7707 22.3953 13.8446 22.3624 13.879C22.6948 14.2293 22.9989 14.5498 23.3198 14.888C23.4139 14.7846 23.5232 14.6645 23.5696 14.475ZM21.8677 14.4426C22.0188 14.3387 22.1699 14.2347 22.321 14.1308C22.2714 14.0788 22.2217 14.0269 22.172 13.975C22.0665 14.0965 21.961 14.2181 21.8677 14.4426ZM24.7413 14.9778C24.5801 14.9443 24.419 14.9108 24.2579 14.8773C24.2505 14.9338 24.2432 14.9902 24.2358 15.0467C24.4218 15.0467 24.6077 15.0467 24.7413 14.9778ZM22.6023 14.7185C22.5511 14.7006 22.5002 14.6815 22.4478 14.6683C22.445 14.6676 22.4295 14.7173 22.4199 14.7436C22.458 14.7538 22.4961 14.7641 22.6023 14.7185ZM23.3138 13.7952C23.365 13.8131 23.4159 13.8322 23.4683 13.8454C23.4711 13.8461 23.4866 13.7964 23.4962 13.7702C23.4581 13.7599 23.42 13.7496 23.3138 13.7952ZM21.1285 14.3582C21.1752 14.3247 21.222 14.2912 21.2688 14.2578C21.205 14.2663 21.1412 14.2749 21.1285 14.3582ZM22.0521 13.3032C22.0437 13.3371 22.0353 13.3711 22.0269 13.405C22.0699 13.4018 22.1129 13.3986 22.1559 13.3954C22.1499 13.3548 22.1439 13.3141 22.0521 13.3032ZM24.0686 14.81C24.0928 14.8191 24.117 14.8281 24.1412 14.8371C24.1337 14.8118 24.1262 14.7865 24.0686 14.81ZM20.3081 15.1378C20.2829 15.1295 20.2577 15.1212 20.2325 15.113C20.2407 15.1373 20.2489 15.1617 20.3081 15.1378Z" fill="white"/>
<path d="M6.17491 2.98047C6.29966 3.11721 6.48839 3.23417 6.53811 3.39411C6.75677 4.09746 6.93529 4.81322 7.25742 5.50141C7.01934 4.512 6.78125 3.52259 6.55169 2.56858C6.15616 2.49002 5.73524 2.40642 5.31431 2.32282C5.31175 2.25354 5.30919 2.18426 5.30663 2.11498C5.62336 2.07163 5.94009 2.02828 6.2639 1.98396C6.21983 1.93176 6.14428 1.84223 6.06715 1.75084C6.7426 1.35233 7.29612 1.54315 7.51762 2.26945C7.82112 3.26455 8.12 4.26255 8.36249 5.27324C8.40359 5.4445 8.15141 5.68576 8.02943 5.90417C7.73018 4.7782 7.46226 3.77013 7.19434 2.76206C7.14646 2.77415 7.09859 2.78625 7.05071 2.79835C7.25008 3.57905 7.42169 4.36836 7.66126 5.13659C7.7707 5.48754 7.70817 5.71208 7.45635 5.94868C7.12229 6.26255 6.81145 6.60103 6.46349 6.95667C6.17159 6.6464 5.89811 6.35569 5.56817 6.00497C5.51382 6.05936 5.41411 6.15916 5.29443 6.27894C6.25779 6.75287 6.30053 7.03172 5.64043 7.78033C5.6776 7.93407 5.76994 8.0915 5.72467 8.17008C5.57883 8.42326 5.4313 8.6991 5.02904 8.57853C4.31689 8.36506 3.59456 8.18561 2.87834 7.98533C2.58881 7.90436 2.30566 7.80089 2.01692 7.71684C1.58754 7.59186 1.19038 6.94201 1.46724 6.75194C1.87257 6.47368 1.70932 6.00276 2.10977 5.66599C2.20079 6.0805 2.27529 6.41978 2.34835 6.75251C3.29206 6.98938 4.29036 7.23995 5.28867 7.49052C5.30038 7.43775 5.3121 7.38498 5.32382 7.33221C4.53166 7.1266 3.73805 6.92619 2.94958 6.70736C2.87045 6.6854 2.82246 6.55183 2.7598 6.42769C2.75958 6.38532 2.75158 6.39306 2.79546 6.38924C3.01722 6.37998 3.20132 6.34232 3.37182 6.37507C3.90357 6.47724 4.43018 6.60604 4.96349 6.74707C5.00587 6.75609 5.04354 6.74257 5.07455 6.67606C4.51181 6.47083 3.95374 6.3251 3.40182 6.15906C3.32227 6.13512 3.27226 6.01352 3.20474 5.94139C3.20089 5.94567 3.19337 5.95437 3.23567 5.94027C3.28986 5.85576 3.30175 5.78535 3.30987 5.72073C3.3061 5.72653 3.29651 5.7365 3.29651 5.7365C3.46497 5.64493 3.63343 5.55336 3.81655 5.45382C3.27669 5.20782 3.26215 4.74811 3.34008 4.37709C3.39793 4.10166 3.67338 3.80988 3.93049 3.6561C4.16598 3.51524 4.5068 3.54956 4.9071 3.49127C4.57519 3.3969 4.32866 3.32681 4.07173 3.25376C4.40478 2.827 5.44825 2.94321 5.77762 3.42952C5.86505 3.33285 5.94996 3.23896 5.99847 3.11122C5.96206 3.07735 5.95043 3.08493 5.98202 3.11763C6.07256 3.08854 6.13152 3.02675 6.18646 2.96872C6.18245 2.97247 6.17491 2.98047 6.17491 2.98047ZM5.09264 3.96372C4.76834 3.99958 4.44404 4.03544 4.11974 4.0713C4.12388 4.09954 4.12803 4.12777 4.13218 4.15601C4.30069 4.17826 4.4692 4.20052 4.63772 4.22277C4.68272 4.28724 4.72773 4.3517 4.77274 4.41617C4.4222 4.65992 4.07166 4.90368 3.72112 5.14743C3.76196 5.19106 3.80281 5.23469 3.84365 5.27831C4.16118 5.2955 4.47871 5.3127 4.79624 5.32989C4.79559 5.28619 4.79493 5.24248 4.79428 5.19878C4.62936 5.17395 4.46444 5.14913 4.29952 5.1243C4.26655 5.06978 4.23357 5.01526 4.20059 4.96074C4.55707 4.65085 4.91354 4.34096 5.33199 3.98512C5.46823 4.3823 5.60447 4.77948 5.74071 5.17666C5.77162 5.17789 5.80253 5.17911 5.83344 5.18034C5.74293 4.62002 5.65243 4.0597 5.542 3.37611C5.39089 3.61707 5.28499 3.78594 5.09264 3.96372ZM4.11739 7.82076C4.581 7.9563 5.03545 8.18478 5.52107 8.01153C4.53858 7.76777 3.55609 7.52401 2.5736 7.28026C2.56401 7.33101 2.55442 7.38177 2.54483 7.43253C3.03785 7.56062 3.53086 7.68871 4.11739 7.82076ZM6.1779 4.27196C6.25516 4.64286 6.33243 5.01376 6.4097 5.38467C6.45819 5.37339 6.50667 5.36211 6.55516 5.35084C6.43145 4.82332 6.30774 4.29581 6.18403 3.7683C6.14159 3.77611 6.09916 3.78393 6.05672 3.79174C6.08303 3.92491 6.10934 4.05808 6.1779 4.27196ZM4.90755 6.04804C4.93162 5.98852 4.95568 5.929 4.97975 5.86948C4.68458 5.83691 4.38941 5.80434 4.09425 5.77178C4.08677 5.816 4.07929 5.86022 4.07181 5.90444C4.31736 5.95445 4.56292 6.00447 4.90755 6.04804ZM7.08701 2.10961C7.0954 2.07568 7.1038 2.04175 7.11219 2.00782C7.0692 2.01102 7.02622 2.01423 6.98324 2.01743C6.98919 2.05806 6.99515 2.09869 7.08701 2.10961ZM5.40557 7.12483C5.45513 7.13755 5.50427 7.15377 5.55464 7.15969C5.56343 7.16072 5.57734 7.11843 5.58889 7.09614C5.54595 7.08214 5.503 7.06814 5.40557 7.12483ZM6.46156 6.2663C6.46861 6.22592 6.47565 6.18554 6.4827 6.14515C6.44109 6.15189 6.39555 6.15124 6.36025 6.16988C6.34967 6.17547 6.36762 6.23484 6.46156 6.2663Z" fill="white"/>
<path d="M42.8668 20.9989C43.6264 21.2058 44.346 21.388 45.0657 21.5702C45.0491 21.6414 45.0325 21.7126 45.0159 21.7838C44.0729 22.0864 43.2601 21.3398 42.3803 21.3706C42.3803 21.4987 42.4333 21.6699 42.372 21.7366C41.854 22.3002 41.3151 22.8449 40.7403 23.4388C40.4959 22.5936 40.2749 21.8519 40.0743 21.1048C40.0515 21.0197 40.162 20.9066 40.1772 20.8017C40.1939 20.6865 40.1963 20.4701 40.1631 20.4616C39.4832 20.2889 39.8889 19.6606 39.5478 19.3097C40.0534 19.2908 40.2719 19.6668 40.2538 20.2838C41.117 20.5154 41.9719 20.7448 42.8668 20.9989ZM40.8779 21.794C41.0538 21.8436 41.2297 21.8931 41.4875 21.9657C41.5003 21.9517 41.5986 21.8438 41.7142 21.7171C41.3279 21.6229 40.9868 21.5398 40.6458 21.4567C40.6301 21.4914 40.6145 21.5261 40.5988 21.5608C40.6632 21.6382 40.7275 21.7157 40.8779 21.794Z" fill="white"/>
<path d="M17.3611 21.3235C17.4705 21.669 17.5509 21.9772 17.6345 22.2846C17.7237 22.612 17.6645 22.8485 17.2812 22.8894C17.0295 21.8591 16.7788 20.8329 16.5409 19.8592C15.8548 19.6981 15.0991 19.5208 14.2387 19.3188C15.0064 18.7264 15.6726 19.3903 16.3406 19.2194C15.9755 19.1202 15.6103 19.021 15.2345 18.9188C15.5323 18.4951 15.8957 18.6227 16.2681 18.7123C17.0192 18.893 17.5901 19.1898 17.6799 20.0931C17.7403 20.7006 17.9831 21.2899 18.1426 21.8878C18.17 21.9902 18.2275 22.1056 18.2021 22.1957C18.1702 22.3088 18.0672 22.4019 17.9949 22.5036C17.9258 22.4313 17.8176 22.3698 17.7939 22.2849C17.5904 21.5565 17.4023 20.8238 17.0836 20.117C17.1669 20.5067 17.2502 20.8963 17.3611 21.3235Z" fill="white"/>
<path d="M22.0733 5.52724C22.1629 5.97056 22.2509 6.36753 22.3419 6.77758C22.8899 6.96198 23.6241 6.81427 23.9305 7.60254C23.4826 7.49758 23.0347 7.39263 22.5868 7.28767C22.5773 7.33665 22.5677 7.38562 22.5582 7.4346C22.9461 7.53767 23.334 7.64075 23.7219 7.74383C23.7344 7.78126 23.7469 7.8187 23.7594 7.85614C23.5988 7.91629 23.4263 8.04797 23.2796 8.02378C22.7389 7.93461 22.1995 7.81736 21.6768 7.65551C21.5502 7.61631 21.4515 7.37656 21.4045 7.21082C21.0634 6.00841 20.7388 4.80132 20.409 3.59571C20.4461 3.55704 20.4832 3.51837 20.5203 3.47971C20.6451 3.59463 20.8384 3.68758 20.8837 3.82804C21.1752 4.73046 21.4343 5.64329 21.81 6.53789C21.6361 5.80907 21.4622 5.08025 21.2883 4.35143C21.3469 4.32514 21.4055 4.29885 21.4641 4.27256C21.6666 4.67533 21.8692 5.07811 22.0733 5.52724Z" fill="white"/>
<path d="M0.350555 9.74923C0.538641 9.59122 0.709804 9.47856 0.82281 9.40417C0.754262 9.33797 0.616576 9.20498 0.478891 9.072C0.519001 8.99742 0.559111 8.92284 0.599221 8.84827C2.02658 9.22869 3.45394 9.60912 5.00129 10.0215C4.4499 10.6048 4.0232 10.1554 3.62268 10.1114C3.17475 10.0621 2.74126 9.88224 2.27116 9.84881C2.35458 9.88609 2.43799 9.92336 2.46035 9.93336C1.88363 10.511 1.28807 11.1075 0.676879 11.7197C0.570285 11.1218 0.451959 10.4582 0.350555 9.74923ZM0.806797 9.91281C0.752917 10.0017 0.699036 10.0907 0.645156 10.1796C1.02471 9.95029 1.3586 10.7151 1.71312 10.1851C1.39608 10.1011 1.14026 10.0333 0.806797 9.91281Z" fill="white"/>
<path d="M17.3631 18.1779C17.1154 18.1225 16.9083 18.0781 16.6925 18.0319C17.0961 17.5613 17.7684 17.8486 18.191 18.1327C18.7746 18.5251 18.5935 19.0867 18.8191 19.5347C19.068 20.0289 19.1458 20.6126 19.2695 21.1638C19.3144 21.3636 19.2767 21.5818 19.2767 21.7916C19.1843 21.8068 19.0919 21.822 18.9995 21.8372C18.7339 20.9162 18.4683 19.9952 18.2027 19.0742C18.1581 19.0862 18.1135 19.0982 18.0688 19.1102C18.2109 19.6428 18.4137 20.1683 18.477 20.71C18.5343 21.1998 19.1152 21.7124 18.4472 22.2972C18.1274 21.0859 17.8274 19.95 17.5365 18.8481C17.1 18.7457 16.5947 18.627 16.0894 18.5084C16.098 18.4293 16.1067 18.3503 16.1154 18.2712C16.3655 18.2712 16.6162 18.2815 16.8656 18.2678C17.0459 18.2579 17.2245 18.2164 17.3631 18.1779Z" fill="white"/>
<path d="M9.38191 4.29727C9.409 4.61391 9.43582 4.88401 9.46265 5.15412C9.36747 5.17313 9.27228 5.19214 9.1771 5.21116C8.85532 4.05779 8.53354 2.90443 8.21176 1.75106C8.16632 1.76279 8.12087 1.77451 8.07543 1.78624C8.38248 2.96858 8.68952 4.15092 8.99657 5.33327C8.9479 5.36992 8.89923 5.40658 8.85057 5.44323C8.73345 5.36565 8.54095 5.31003 8.51083 5.20712C8.19855 4.14011 7.9085 3.06652 7.62397 1.99168C7.58795 1.85564 7.61904 1.70193 7.61904 1.56801C7.35654 1.52236 7.11373 1.48014 6.87092 1.43791C6.86264 1.37379 6.85435 1.30966 6.84607 1.24554C7.37442 1.11345 7.90278 0.981351 8.44095 0.846802C8.76167 2.00735 9.07166 3.12904 9.38191 4.29727Z" fill="white"/>
<path d="M4.61193 9.24948C4.78937 9.30325 4.92073 9.35546 5.07646 9.41736C5.00271 9.74334 4.89685 9.82724 4.50295 9.70847C3.23634 9.32653 1.9455 9.02448 0.652893 8.68874C1.095 7.87865 1.3905 7.73531 2.15375 7.94766C3.14097 8.22233 4.12625 8.50395 5.11178 8.78461C5.17629 8.80298 5.23586 8.83863 5.31733 8.87499C5.25626 8.99787 5.20223 9.10661 5.14126 9.22929C3.93771 8.91708 2.73167 8.60422 1.52563 8.29136C1.51378 8.33873 1.50194 8.38609 1.4901 8.43345C2.51534 8.70494 3.54059 8.97643 4.61193 9.24948Z" fill="white"/>
<path d="M48.4228 11.5309C48.8275 11.7808 49.0626 12.1113 49.1362 12.6213C49.2238 13.2283 49.4731 13.8104 49.5981 14.4145C49.6626 14.7258 49.6095 15.0614 49.6095 15.3861C49.5438 15.395 49.4782 15.4038 49.4125 15.4127C49.1167 14.2985 48.8208 13.1844 48.538 12.1195C47.5731 11.8433 46.5717 11.5612 45.5758 11.2608C45.5127 11.2418 45.4927 11.0807 45.3945 10.8481C46.452 11.1024 47.4016 11.3307 48.3934 11.5516C48.4355 11.5442 48.4274 11.535 48.4228 11.5309Z" fill="white"/>
<path d="M17.6837 17.1746C17.8648 17.2114 17.9992 17.2567 18.1372 17.2831C18.6849 17.388 18.9782 17.7048 19.107 18.2572C19.3072 19.1155 19.5676 19.9602 19.8151 20.807C19.9064 21.1193 19.9103 21.3497 19.4772 21.3594C19.1755 20.1961 18.8746 19.036 18.5677 17.8525C18.1693 17.7578 17.7033 17.647 17.0917 17.5016C17.3589 17.3418 17.4988 17.2581 17.6837 17.1746Z" fill="white"/>
<path d="M25.5177 11.3375C24.7943 11.1327 24.1175 10.9296 23.25 10.6692C23.5275 10.5301 23.7305 10.3346 23.8719 10.3718C25.3715 10.7661 26.8614 11.1974 28.3865 11.6276C28.2448 11.8888 28.1336 12.0252 27.772 11.9065C27.0517 11.6702 26.3019 11.5231 25.5177 11.3375Z" fill="white"/>
<path d="M18.9822 16.9615C18.8481 16.492 18.589 16.0717 19.0186 15.4934C19.2133 16.1656 19.3832 16.7209 19.5344 17.2812C19.7638 18.1309 19.9933 18.9811 20.1923 19.8381C20.2392 20.04 20.1648 20.27 20.1462 20.487C20.0725 20.4869 19.9987 20.4867 19.9249 20.4866C19.6114 19.3271 19.298 18.1677 18.9822 16.9615Z" fill="white"/>
<path d="M44.3242 22.0956C44.0265 22.1844 43.7512 22.2593 43.4723 22.2759C43.2955 22.2864 43.1134 22.2102 42.899 22.2598C43.0962 22.3445 43.2934 22.4293 43.6148 22.5674C43.157 22.7711 42.7991 22.9304 42.4343 23.0927C42.4018 23.0093 42.3722 22.9332 42.3582 22.8973C41.9271 23.1459 41.4939 23.3957 41.0607 23.6455C41.0275 23.5983 40.9944 23.5511 40.9612 23.5039C41.5327 22.9317 42.0964 22.3513 42.684 21.7961C42.7742 21.7108 42.9842 21.6968 43.122 21.7268C43.5341 21.8163 43.9379 21.944 44.3242 22.0956Z" fill="white"/>
<path d="M9.13419 0.924212C9.45378 2.10828 9.72051 3.26144 10.0638 4.39145C10.1717 4.74645 10.1337 4.87974 9.7501 4.95881C9.37941 3.62475 9.00214 2.29059 8.64837 0.950256C8.61918 0.839651 8.74948 0.687165 8.80568 0.554138C8.90743 0.664211 9.00918 0.774284 9.13419 0.924212Z" fill="white"/>
<path d="M31.9349 16.4227C31.5161 16.8349 31.1278 17.22 30.611 17.7326C30.7468 16.8574 30.1966 16.3001 30.1203 15.3914C30.4184 15.6425 30.6064 15.8008 30.8613 16.0155C30.9704 16.0057 31.3096 15.7318 31.332 16.2441C31.59 16.1359 31.8761 16.016 32.1622 15.8961C32.195 15.9466 32.2277 15.9971 32.2604 16.0477C32.1621 16.1637 32.0638 16.2797 31.9349 16.4227Z" fill="white"/>
<path d="M18.1808 5.6965C18.3723 5.81804 18.5682 5.94371 18.7776 6.10495C18.791 6.14052 18.8001 6.13235 18.8001 6.13235C18.0922 6.46487 17.4606 6.0288 16.8168 5.88825C16.2524 5.76502 15.7347 5.42873 15.195 5.13957C15.2091 5.08012 15.2244 5.06765 15.2398 5.05518C16.091 5.26509 16.9419 5.47623 17.7938 5.68333C17.8962 5.7082 18.0039 5.71114 18.1513 5.71705C18.1936 5.70986 18.1854 5.70063 18.1808 5.6965Z" fill="white"/>
<path d="M2.76361 6.3815C2.50138 6.4584 2.43397 6.30202 2.38878 6.08373C2.31481 5.72638 2.07257 5.35338 2.56565 5.02938C2.62862 5.2087 2.68284 5.36308 2.73706 5.51746C2.77975 5.51005 2.82243 5.50265 2.86512 5.49525C2.86512 5.13375 2.86512 4.77226 2.86512 4.41076C2.9316 4.40336 2.99809 4.39595 3.06457 4.38855C3.14644 4.80644 3.22831 5.22433 3.30334 5.68936C3.29649 5.7365 3.30608 5.72653 3.2739 5.73236C3.22559 5.81025 3.20947 5.88231 3.19335 5.95437C3.19335 5.95437 3.20088 5.94567 3.16458 5.94517C3.00271 6.09413 2.87714 6.2436 2.75156 6.39307C2.75156 6.39307 2.75956 6.38533 2.76361 6.3815Z" fill="white"/>
<path d="M18.7869 6.14507C18.845 6.17637 18.951 6.19051 18.9629 6.23174C19.2153 7.1039 19.457 7.97911 19.7276 8.94963C19.0107 8.42441 18.517 6.9139 18.7792 6.17853C18.8001 6.13236 18.791 6.14052 18.7869 6.14507Z" fill="white"/>
<path d="M23.121 6.29364C23.2876 6.45321 23.4136 6.59675 23.5684 6.77304C22.5254 6.84488 22.3058 6.17463 22.2396 5.18942C22.533 5.53298 22.967 5.67281 22.8243 6.19C22.8228 6.19537 22.9912 6.24737 23.121 6.29364Z" fill="white"/>
<path d="M18.8452 17.1041C18.5046 17.1373 18.1395 17.1321 17.7745 17.1269C17.7751 17.0719 17.7758 17.0168 17.7764 16.9618C18.013 16.7112 18.2495 16.4606 18.5321 16.1613C18.6351 16.484 18.7279 16.7748 18.8452 17.1041Z" fill="white"/>
<path d="M5.96703 3.07255C5.53006 2.97811 5.08808 2.88848 4.59232 2.78795C5.05353 2.36577 5.97448 2.46675 6.17771 2.93399C6.17489 2.98049 6.18242 2.97249 6.14871 2.97232C6.06013 3.00975 6.00527 3.04735 5.95041 3.08495C5.95041 3.08495 5.96204 3.07737 5.96703 3.07255Z" fill="white"/>
<path d="M18.4699 6.72958C18.6033 7.15107 18.6946 7.56228 18.7859 7.97348C18.7614 7.98899 18.7368 8.0045 18.7123 8.02C18.5393 7.66691 18.3662 7.31382 18.1931 6.96073C18.0885 7.04103 17.9838 7.12133 17.8791 7.20163C18.062 7.04086 18.2449 6.88008 18.4699 6.72958Z" fill="white"/>
<path d="M17.3469 6.56785C17.2103 6.45573 17.1011 6.37485 16.9919 6.29396C17.0039 6.24876 17.0158 6.20356 17.0278 6.15836C17.419 6.24644 17.8102 6.33453 18.2911 6.4428C18.0966 6.65 17.9549 6.8009 17.7873 6.97947C17.6347 6.83894 17.5046 6.719 17.3469 6.56785Z" fill="white"/>
<path d="M46.0388 14.6406C45.8854 14.6043 45.7273 14.5693 45.5692 14.5343C45.1798 14.4481 45.1798 14.4481 45.3044 14.0154C45.6014 14.1008 45.8984 14.1863 46.2845 14.2973C46.1373 14.4298 46.0486 14.5096 45.9953 14.6202C46.0307 14.6509 46.0342 14.6419 46.0388 14.6406Z" fill="white"/>
<path d="M15.1688 5.10891C15.1093 5.07686 15.0745 5.02846 15.0398 4.98007C15.0993 4.98452 15.1589 4.98898 15.2291 5.0243C15.2244 5.06764 15.209 5.08011 15.1688 5.10891Z" fill="white"/>
<path d="M33.9606 3.33446C33.133 3.10475 32.3433 2.90231 31.5535 2.69988C31.5683 2.64553 31.5831 2.59118 31.5978 2.53683C32.9303 2.8902 34.2627 3.24357 35.5951 3.59694C35.5837 3.64396 35.5723 3.69098 35.5608 3.73801C35.04 3.61259 34.5192 3.48717 33.9606 3.33446Z" fill="black"/>
<path d="M44.621 4.65052C44.4722 4.80913 44.3533 4.9382 44.1753 5.13145C44.4371 5.16051 44.6073 5.17941 44.7775 5.1983C44.7758 5.24525 44.7741 5.29221 44.7724 5.33916C44.4449 5.31788 44.1173 5.2966 43.7898 5.27533C43.7424 5.21592 43.6951 5.15652 43.6478 5.09711C43.9867 4.83992 44.3256 4.58274 44.6646 4.32556C44.6366 4.28718 44.6087 4.2488 44.5808 4.21042C44.4095 4.19334 44.2382 4.17625 44.0669 4.15917C44.0696 4.10846 44.0724 4.05776 44.0752 4.00705C44.3993 4.03279 44.7235 4.05854 45.1606 4.09325C44.9605 4.30049 44.8057 4.46075 44.621 4.65052Z" fill="black"/>
<path d="M32.8183 1.76028C32.7081 1.70619 32.6424 1.65318 32.5768 1.60016C32.5859 1.57496 32.595 1.54977 32.6041 1.52457C33.5522 1.7701 34.5004 2.01564 35.4343 2.25749C35.3615 2.32574 35.0174 2.28847 34.1939 2.09271C33.7491 1.98697 33.3065 1.8721 32.8183 1.76028Z" fill="black"/>
<path d="M42.1549 2.52356C42.2724 2.39184 42.3898 2.26011 42.5787 2.04831C42.8565 2.45588 43.1094 2.82679 43.3622 3.19771C43.4366 3.16444 43.511 3.13117 43.5854 3.0979C43.4838 3.19394 43.3821 3.28997 43.3998 3.27324C42.9675 2.99962 42.6271 2.78422 42.2393 2.56944C42.1796 2.55455 42.1672 2.53906 42.1549 2.52356Z" fill="black"/>
<path d="M45.9357 6.45935C46.1581 6.65424 46.3532 6.81867 46.5818 7.01122C46.5003 7.07671 46.3896 7.16566 46.3442 7.2021C46.0095 6.89786 45.6752 6.59413 45.3234 6.2744C45.3569 6.24273 45.4818 6.12459 45.6088 6.00433C45.7165 6.15692 45.8125 6.29291 45.9357 6.45935Z" fill="black"/>
<path d="M43.2392 5.10718C43.1589 4.77262 43.1023 4.47884 43.0457 4.18506C43.0928 4.1769 43.1399 4.16874 43.187 4.16058C43.2917 4.59406 43.3964 5.02754 43.5011 5.46102C43.5733 5.47602 43.6454 5.49101 43.7176 5.50601C43.5882 5.61184 43.4588 5.71767 43.263 5.87776C43.263 5.57481 43.263 5.36139 43.2392 5.10718Z" fill="black"/>
<path d="M45.4748 4.31465C45.3983 4.14095 45.3221 4.01454 45.2236 3.85111C45.2978 3.77155 45.4036 3.65818 45.5312 3.52136C45.6254 4.10434 45.7116 4.6375 45.7978 5.17067C45.7458 5.18007 45.6938 5.18948 45.6418 5.19888C45.5862 4.91991 45.5307 4.64093 45.4748 4.31465Z" fill="black"/>
<path d="M46.4286 5.35396C46.2629 4.86541 46.1304 4.3398 45.998 3.8142C46.0542 3.8013 46.1104 3.78841 46.1667 3.77551C46.265 4.28931 46.3634 4.8031 46.4286 5.35396Z" fill="black"/>
<path d="M47.9933 10.0737C48.0708 10.3629 48.131 10.6112 48.1959 10.8788C48.0757 10.8788 47.9574 10.8788 47.9158 10.8788C47.8668 10.61 47.8236 10.3729 47.7651 10.0523C47.753 10.0534 47.8645 10.0431 47.9933 10.0737Z" fill="black"/>
<path d="M42.3712 4.06894C42.5489 4.55844 42.7265 5.04794 42.9042 5.53744C42.8425 5.55634 42.7808 5.57523 42.7191 5.59413C42.6072 5.15661 42.4953 4.71908 42.3854 4.20573C42.3819 4.10958 42.3766 4.08926 42.3712 4.06894Z" fill="black"/>
<path d="M44.1428 3.5228C44.0295 3.50352 43.966 3.48437 43.9025 3.46521C43.9605 3.41138 44.0259 3.30553 44.0753 3.31249C44.3258 3.34781 44.5721 3.4124 44.8034 3.57784C44.5999 3.55953 44.3963 3.54123 44.1428 3.5228Z" fill="black"/>
<path d="M44.2985 5.94527C44.2004 5.93929 44.1472 5.93366 44.094 5.92804C44.1408 5.87263 44.1923 5.76636 44.2335 5.77018C44.4732 5.79238 44.7104 5.84047 44.9484 5.87981C44.944 5.92926 44.9397 5.97871 44.9353 6.02816C44.738 6.00065 44.5407 5.97314 44.2985 5.94527Z" fill="black"/>
<path d="M31.2866 4.452C31.0747 4.48677 30.8864 4.50356 30.7022 4.51998C30.7022 4.46058 30.7022 4.3397 30.7022 4.16986C30.9255 4.22368 31.1214 4.27088 31.3359 4.35634C31.3398 4.40775 31.325 4.42088 31.2866 4.452Z" fill="black"/>
<path d="M37.8441 1.71416C37.4743 2.10327 37.5511 1.74199 37.4415 1.45883C37.6539 1.5639 37.7646 1.61863 37.8441 1.71416Z" fill="black"/>
<path d="M46.8486 6.50782C46.9248 6.47567 46.9598 6.47441 46.9947 6.47314C46.9947 6.59616 46.9947 6.71917 46.9947 6.86515C46.8065 6.8078 46.4646 6.86884 46.8486 6.50782Z" fill="black"/>
<path d="M41.9747 2.8933C41.9983 2.77209 42.0219 2.65088 42.1002 2.52661C42.1672 2.53905 42.1795 2.55454 42.208 2.59496C42.1545 2.69647 42.0849 2.77306 41.9909 2.86775C41.9666 2.88585 41.9747 2.8933 41.9747 2.8933Z" fill="black"/>
<path d="M36.8147 0.767395C36.8943 0.812146 36.9368 0.886848 36.9792 0.96155C36.9207 0.972259 36.8622 0.982969 36.8037 0.993679C36.7949 0.928235 36.7861 0.862791 36.8147 0.767395Z" fill="black"/>
<path d="M47.5308 7.58066C47.6236 7.47078 47.6873 7.40581 47.7511 7.34085C47.7858 7.39216 47.8206 7.44348 47.8553 7.49479C47.7374 7.53839 47.6196 7.58198 47.5308 7.58066Z" fill="black"/>
<path d="M41.0744 1.95848C41.0831 1.85314 41.1413 1.76812 41.2367 1.62869C41.2917 1.79016 41.3271 1.89422 41.3626 1.99828C41.283 1.99179 41.2035 1.98531 41.0744 1.95848Z" fill="black"/>
<path d="M41.9629 2.88173C41.9044 2.96771 41.8495 3.05778 41.7947 3.14786C41.7511 3.10272 41.7075 3.05759 41.6639 3.01245C41.737 2.96331 41.81 2.91416 41.9288 2.87915C41.9747 2.89328 41.9666 2.88584 41.9629 2.88173Z" fill="black"/>
<path d="M42.457 3.1333C42.4576 3.20821 42.4263 3.25189 42.3951 3.29557C42.4051 3.23107 42.4151 3.16657 42.457 3.1333Z" fill="black"/>
<path d="M41.0693 2.69727C41.1136 2.71701 41.1303 2.77036 41.141 2.82489C41.1416 2.82781 41.0908 2.84069 41.064 2.84893C41.0561 2.80966 41.0483 2.77039 41.0693 2.69727Z" fill="black"/>
<path d="M43.4635 2.26831C43.3933 2.28966 43.3503 2.27566 43.3074 2.26165C43.3189 2.23937 43.3328 2.19707 43.3416 2.19811C43.392 2.20403 43.4411 2.22024 43.4635 2.26831Z" fill="black"/>
<path d="M42.0013 1.7673C42.0734 1.74964 42.1115 1.7599 42.1496 1.77017C42.14 1.79641 42.1245 1.84612 42.1218 1.84542C42.0693 1.83225 42.0184 1.81312 42.0013 1.7673Z" fill="black"/>
<path d="M36.7226 1.787C36.7748 1.75362 36.8168 1.76329 36.8589 1.77296C36.8101 1.79199 36.7613 1.81102 36.7226 1.787Z" fill="black"/>
<path d="M35.4401 1.26605C35.4845 1.28579 35.5012 1.33914 35.5118 1.39367C35.5124 1.3966 35.4617 1.40948 35.4349 1.41772C35.427 1.37845 35.4191 1.33918 35.4401 1.26605Z" fill="black"/>
<path d="M46.8587 7.52701C46.8228 7.56754 46.7601 7.57338 46.6973 7.57922C46.7421 7.55025 46.7869 7.52128 46.8587 7.52701Z" fill="black"/>
<path d="M45.4594 7.05316C45.5088 7.08626 45.5267 7.14564 45.5162 7.15122C45.4808 7.16986 45.4353 7.16921 45.3937 7.17594C45.4008 7.13556 45.4078 7.09518 45.4594 7.05316Z" fill="black"/>
<path d="M47.7681 6.67197C47.6979 6.69332 47.6549 6.67931 47.612 6.66531C47.6235 6.64303 47.6375 6.60073 47.6463 6.60176C47.6966 6.60769 47.7458 6.6239 47.7681 6.67197Z" fill="black"/>
<path d="M46.3647 6.15063C46.4064 6.09904 46.4466 6.09177 46.4869 6.0845C46.4806 6.1259 46.4818 6.17124 46.4634 6.20634C46.4578 6.21703 46.3982 6.19953 46.3647 6.15063Z" fill="black"/>
<path d="M45.5586 8.81264C45.5512 8.8343 45.5136 8.84783 45.4712 8.83881C45.4871 8.81234 45.5076 8.80842 45.5586 8.81264Z" fill="black"/>
<path d="M42.3813 4.16086C42.3589 4.15355 42.3424 4.11529 42.3486 4.073C42.3766 4.08928 42.382 4.1096 42.3813 4.16086Z" fill="black"/>
<path d="M45.0067 6.7209C44.9994 6.74257 44.9617 6.75609 44.9193 6.74707C44.9352 6.7206 44.9558 6.71668 45.0067 6.7209Z" fill="black"/>
<path d="M40.2113 3.55255C40.2448 3.55343 40.2525 3.57796 40.2602 3.60248C40.2353 3.59372 40.2104 3.58496 40.2113 3.55255Z" fill="black"/>
<path d="M35.1778 1.72814C35.1453 1.72727 35.1378 1.70197 35.1303 1.67667C35.1545 1.68568 35.1787 1.69469 35.1778 1.72814Z" fill="black"/>
<path d="M35.7297 3.81987C35.6972 3.819 35.6897 3.7937 35.6822 3.7684C35.7064 3.77741 35.7306 3.78643 35.7297 3.81987Z" fill="black"/>
<path d="M34.6546 19.5963C34.2841 19.5081 33.9604 19.4201 33.6367 19.3321C33.646 19.2824 33.6552 19.2328 33.6644 19.1831C34.6148 19.4153 35.5652 19.6474 36.5174 19.88C36.7483 20.8208 36.9881 21.7974 37.2278 22.7739C37.1775 22.7845 37.1271 22.7951 37.0767 22.8057C36.904 22.1609 36.6896 21.5237 36.5711 20.8693C36.4625 20.2702 36.047 20.0267 35.5699 19.8316C35.2945 19.719 34.9919 19.6727 34.6546 19.5963Z" fill="black"/>
<path d="M37.8716 22.9035C37.6834 22.3209 37.4867 21.7408 37.3101 21.1547C37.2056 20.8074 37.1328 20.4507 37.0457 20.0982C37.093 20.0861 37.1403 20.0741 37.1877 20.062C37.4115 20.938 37.6354 21.8139 37.8574 22.7662C37.8609 22.8629 37.8662 22.8832 37.8716 22.9035Z" fill="black"/>
<path d="M33.8986 20.0217C33.9893 19.9829 34.1374 19.9087 34.2586 19.9395C34.8406 20.0873 35.4153 20.2635 36.036 20.4421C35.9353 20.5566 35.8226 20.6848 35.747 20.7708C35.6029 20.6503 35.4996 20.5069 35.3629 20.46C34.8961 20.2999 34.4176 20.1738 33.8986 20.0217Z" fill="black"/>
<path d="M36.1802 21.739C36.118 21.4949 36.076 21.292 36.0339 21.0891C36.0768 21.0819 36.1197 21.0747 36.1626 21.0675C36.2897 21.5641 36.4168 22.0606 36.5439 22.5572C36.4836 22.5716 36.4232 22.5861 36.3629 22.6005C36.3087 22.3271 36.2545 22.0536 36.1802 21.739Z" fill="black"/>
<path d="M35.7745 22.3531C35.6607 22.0601 35.5534 21.7644 35.4297 21.4757C35.3824 21.3652 35.2975 21.2707 35.2015 21.1267C35.2468 21.0765 35.3378 20.9758 35.4837 20.8144C35.5869 21.3051 35.6746 21.7221 35.7603 22.2156C35.7638 22.3124 35.7691 22.3327 35.7745 22.3531Z" fill="black"/>
<path d="M34.7199 22.5318C34.4206 22.5721 34.1386 22.5721 33.7619 22.5721C33.9274 22.3937 34.0196 22.2944 34.0323 22.2808C34.3243 22.3681 34.5308 22.4298 34.7199 22.5318Z" fill="black"/>
<path d="M34.2719 21.467C34.2813 21.3979 34.3423 21.2667 34.387 21.272C34.5959 21.2967 34.8003 21.3592 35.0426 21.4168C34.956 21.5196 34.8688 21.623 34.8207 21.68C34.6161 21.594 34.466 21.5309 34.2719 21.467Z" fill="black"/>
<path d="M34.0078 20.7852C34.2764 20.2892 34.4929 20.8315 34.7589 20.8747C34.5237 20.8511 34.2885 20.8274 34.0078 20.7852Z" fill="black"/>
<path d="M33.255 20.6823C33.2049 20.5631 33.2049 20.4333 33.2049 20.2802C33.3194 20.2802 33.4482 20.2802 33.654 20.2802C33.5079 20.4441 33.4066 20.5579 33.255 20.6823Z" fill="black"/>
<path d="M32.1049 19.8178C32.1208 19.9466 32.0845 20.0745 32.0483 20.2024C31.982 20.1719 31.9157 20.1414 31.8494 20.1109C31.9172 20.0129 31.985 19.9149 32.1049 19.8178Z" fill="black"/>
<path d="M31.2693 19.0235C31.3409 19.1232 31.3602 19.2264 31.3841 19.354C31.2563 19.3596 31.1338 19.3651 30.9102 19.375C31.0485 19.2182 31.1328 19.1226 31.2693 19.0235Z" fill="black"/>
<path d="M32.6676 19.6036C32.6006 19.6676 32.5328 19.6778 32.4651 19.688C32.4701 19.6332 32.475 19.5784 32.4799 19.5236C32.5423 19.5324 32.6046 19.5411 32.6676 19.6036Z" fill="black"/>
<path d="M31.1202 20.1264C31.1132 20.0564 31.145 20.009 31.1767 19.9617C31.1707 20.0241 31.1648 20.0866 31.1202 20.1264Z" fill="black"/>
<path d="M32.5537 20.4916C32.512 20.5432 32.4717 20.5505 32.4314 20.5577C32.4377 20.5163 32.4365 20.471 32.4549 20.4359C32.4605 20.4252 32.5202 20.4427 32.5537 20.4916Z" fill="black"/>
<path d="M36.4562 23.424C36.404 23.4574 36.362 23.4477 36.3199 23.438C36.3687 23.419 36.4175 23.4 36.4562 23.424Z" fill="black"/>
<path d="M33.3404 19.5818C33.3821 19.5302 33.4224 19.5229 33.4626 19.5157C33.4563 19.5571 33.4575 19.6024 33.4392 19.6375C33.4336 19.6482 33.3739 19.6307 33.3404 19.5818Z" fill="black"/>
<path d="M32.1096 19.211C32.0652 19.1913 32.0485 19.1379 32.0378 19.0834C32.0373 19.0804 32.088 19.0676 32.1148 19.0593C32.1227 19.0986 32.1306 19.1379 32.1096 19.211Z" fill="black"/>
<path d="M29.2522 17.4171C29.2747 17.4244 29.2912 17.4627 29.285 17.505C29.257 17.4887 29.2516 17.4684 29.2522 17.4171Z" fill="black"/>
<path d="M37.8615 22.8116C37.884 22.8189 37.9004 22.8572 37.8943 22.8995C37.8662 22.8832 37.8609 22.8629 37.8615 22.8116Z" fill="black"/>
<path d="M35.7644 22.2612C35.7868 22.2685 35.8033 22.3067 35.7971 22.349C35.7691 22.3327 35.7637 22.3124 35.7644 22.2612Z" fill="black"/>
<path d="M28.9156 20.5645C28.8931 20.5572 28.8766 20.5189 28.8828 20.4767C28.9108 20.4929 28.9162 20.5133 28.9156 20.5645Z" fill="black"/>
<path d="M2.22085 18.3969C2.21888 18.1573 2.2968 17.924 2.24757 17.7214C2.08125 17.0369 1.86492 16.3646 1.68144 15.6839C1.65669 15.5921 1.71047 15.4792 1.75136 15.2369C2.0055 16.1301 2.21195 16.8682 2.42646 17.6039C2.52374 17.9376 2.71085 18.1885 3.07631 18.2771C3.69437 18.4269 4.30987 18.5873 4.92457 18.7503C4.96072 18.7599 4.98018 18.8321 5.01509 18.8873C4.1176 18.7222 3.23797 18.5603 2.32327 18.4267C2.27295 18.4424 2.25771 18.4298 2.22085 18.3969Z" fill="black"/>
<path d="M6.33682 17.0164C6.14313 17.262 5.93288 17.483 5.72264 17.704C5.76792 17.6735 5.81321 17.6431 5.8585 17.6126C6.02971 17.9307 6.20093 18.2487 6.37214 18.5668C6.43648 18.527 6.50081 18.4872 6.56515 18.4474C6.46946 18.558 6.37376 18.6686 6.27807 18.7793C6.31418 18.7234 6.35029 18.6676 6.3864 18.6118C6.04028 18.3512 5.69416 18.0905 5.28018 17.7788C5.60469 17.4895 5.90509 17.2217 6.24419 16.9497C6.29535 16.961 6.30781 16.9764 6.33682 17.0164Z" fill="black"/>
<path d="M3.10763 18.9341C3.91257 19.1379 4.67187 19.3399 5.43117 19.5419C5.41914 19.5922 5.40711 19.6425 5.39509 19.6928C4.44625 19.4478 3.49742 19.2029 2.54858 18.9579C2.56048 18.9085 2.57237 18.8591 2.58426 18.8097C2.74351 18.8506 2.90275 18.8914 3.10763 18.9341Z" fill="black"/>
<path d="M4.60235 18.1983C3.99488 18.0391 3.42636 17.9082 2.82358 17.7695C2.90284 17.6742 2.98857 17.5712 2.98307 17.5778C3.73932 17.7799 4.409 17.9588 5.07869 18.1378C5.0862 18.1674 5.09371 18.1971 5.10121 18.2267C4.94791 18.2267 4.79461 18.2267 4.60235 18.1983Z" fill="black"/>
<path d="M2.82223 13.9899C3.09549 14.2178 3.33493 14.4179 3.59243 14.6332C3.54203 14.6788 3.41403 14.7946 3.40674 14.8012C3.03805 14.5083 2.6902 14.2319 2.35315 13.9641C2.5401 13.5441 2.66116 13.7923 2.82223 13.9899Z" fill="black"/>
<path d="M3.3094 17.1527C3.25157 16.8292 3.17792 16.5558 3.13771 16.2776C3.11116 16.0939 3.13269 15.9033 3.20196 15.713C3.38834 16.1406 3.20631 16.6922 3.80159 17.0384C3.66957 17.1414 3.51723 17.2602 3.3649 17.3789C3.34587 17.3196 3.32683 17.2602 3.3094 17.1527Z" fill="black"/>
<path d="M2.41537 15.6286C2.58542 16.0818 2.75547 16.5351 2.92551 16.9883C2.85983 17.0092 2.79415 17.0301 2.72846 17.051C2.62819 16.648 2.52791 16.245 2.42955 15.7657C2.42611 15.6692 2.42074 15.6489 2.41537 15.6286Z" fill="black"/>
<path d="M4.34092 17.5034C4.23075 17.4488 4.16487 17.3952 4.00116 17.2621C4.37174 17.3325 4.62475 17.3806 4.87776 17.4287C4.87757 17.4666 4.87739 17.5044 4.87721 17.5422C4.71321 17.5296 4.54921 17.517 4.34092 17.5034Z" fill="black"/>
<path d="M4.37958 14.8637C4.55133 14.9174 4.67654 14.9699 4.80175 15.0224C4.79948 15.0433 4.79722 15.0641 4.79495 15.085C4.52943 15.0534 4.26392 15.0218 3.99841 14.9902C3.99607 14.9622 3.99373 14.9343 3.99139 14.9063C4.10528 14.8917 4.21916 14.8771 4.37958 14.8637Z" fill="black"/>
<path d="M7.6121 19.2109C7.54649 19.0977 7.51356 18.9482 7.48077 18.7994C7.67649 18.7994 7.80501 18.7994 7.99951 18.7994C7.85511 18.9522 7.74995 19.0634 7.6121 19.2109Z" fill="black"/>
<path d="M1.83481 14.0237C1.98684 14.0347 2.11012 14.0891 2.27626 14.1623C2.1455 14.2989 2.02753 14.4222 1.88908 14.5668C1.85672 14.372 1.83139 14.2195 1.83481 14.0237Z" fill="black"/>
<path d="M7.03741 18.2708C6.9118 18.2927 6.81061 18.2682 6.54733 18.2045C6.7234 18.0428 6.83122 17.9437 7.03294 17.7584C7.0493 18.0223 7.05557 18.1234 7.03741 18.2708Z" fill="black"/>
<path d="M1.14257 13.3488C1.23605 13.3528 1.29071 13.3931 1.34537 13.4334C1.30265 13.4678 1.25993 13.5022 1.2172 13.5366C1.17938 13.4861 1.14156 13.4355 1.14257 13.3488Z" fill="black"/>
<path d="M5.64352 20.1572C5.68309 20.1112 5.74531 20.0845 5.80752 20.0577C5.79299 20.0947 5.77846 20.1316 5.73933 20.1895C5.69856 20.1992 5.68236 20.1878 5.64352 20.1572Z" fill="black"/>
<path d="M2.59815 14.683C2.56231 14.7235 2.49957 14.7293 2.43683 14.7352C2.48164 14.7062 2.52644 14.6772 2.59815 14.683Z" fill="black"/>
<path d="M1.26587 14.3061C1.19371 14.3238 1.1556 14.3135 1.11749 14.3032C1.12707 14.277 1.14257 14.2273 1.14535 14.228C1.19777 14.2411 1.24869 14.2603 1.26587 14.3061Z" fill="black"/>
<path d="M3.3699 13.7673C3.44206 13.7496 3.48017 13.7599 3.51828 13.7702C3.5087 13.7964 3.4932 13.8461 3.49042 13.8454C3.438 13.8323 3.38708 13.8131 3.3699 13.7673Z" fill="black"/>
<path d="M6.48774 17.6812C6.41756 17.7025 6.37461 17.6885 6.33167 17.6745C6.34321 17.6522 6.35713 17.6099 6.36592 17.6109C6.41628 17.6169 6.46542 17.6331 6.48774 17.6812Z" fill="black"/>
<path d="M2.03763 13.3904C2.07347 13.3499 2.13621 13.3441 2.19895 13.3382C2.15414 13.3672 2.10933 13.3962 2.03763 13.3904Z" fill="black"/>
<path d="M5.57828 18.5362C5.54244 18.5767 5.4797 18.5826 5.41696 18.5884C5.46177 18.5594 5.50658 18.5305 5.57828 18.5362Z" fill="black"/>
<path d="M2.42551 15.7205C2.40304 15.7132 2.38655 15.6749 2.39273 15.6326C2.42076 15.6489 2.42612 15.6692 2.42551 15.7205Z" fill="black"/>
<path d="M5.15576 19.0125C5.12321 19.0117 5.11571 18.9864 5.10822 18.9611C5.13241 18.9701 5.15661 18.9791 5.15576 19.0125Z" fill="black"/>
<path d="M20.6376 7.38165C20.2621 5.9979 19.8887 4.65937 19.5154 3.32085C19.5766 3.30629 19.6378 3.29172 19.699 3.27716C20.0748 4.72838 20.4506 6.1796 20.8264 7.63082C20.7773 7.64194 20.7283 7.65307 20.6792 7.6642C20.6661 7.58509 20.653 7.50599 20.6376 7.38165Z" fill="black"/>
<path d="M12.494 2.97059C12.1593 2.86757 11.871 2.76621 11.5827 2.66485C11.5959 2.62208 11.6092 2.5793 11.6224 2.53653C12.9512 2.89204 14.28 3.24755 15.6088 3.60306C15.5967 3.65265 15.5846 3.70225 15.5725 3.75184C14.5618 3.49198 13.5511 3.23211 12.494 2.97059Z" fill="black"/>
<path d="M14.2213 2.09382C13.6462 1.95092 13.1177 1.80983 12.5893 1.66875C12.6029 1.62098 12.6165 1.57322 12.6301 1.52545C13.5779 1.77119 14.5257 2.01692 15.6114 2.2984C15.0414 2.47785 14.6676 2.17878 14.2213 2.09382Z" fill="black"/>
<path d="M17.9998 4.50528C18.0819 4.71352 18.1641 4.92175 18.2463 5.12999C18.1754 5.14701 18.1046 5.16403 18.0337 5.18105C18.0089 5.00109 17.984 4.82113 17.957 4.59268C17.9699 4.53122 17.9848 4.51825 17.9998 4.50528Z" fill="black"/>
<path d="M17.9312 4.56205C17.812 4.54934 17.7166 4.51878 17.5727 4.47269C17.7016 4.32969 17.815 4.20385 17.9722 4.02951C17.9811 4.20744 17.9864 4.31494 17.9958 4.46386C17.9848 4.51826 17.9698 4.53123 17.9312 4.56205Z" fill="black"/>
<path d="M16.8499 1.70212C16.8505 1.77703 16.8193 1.82071 16.788 1.86438C16.798 1.79989 16.808 1.73539 16.8499 1.70212Z" fill="black"/>
<path d="M15.4469 1.41079C15.4399 1.34078 15.4717 1.29345 15.5034 1.24612C15.4975 1.30857 15.4915 1.37102 15.4469 1.41079Z" fill="black"/>
<path d="M15.2054 1.65669C15.1981 1.67836 15.1604 1.69188 15.118 1.68286C15.1339 1.65639 15.1545 1.65247 15.2054 1.65669Z" fill="black"/>
<path d="M15.703 3.81866C15.7038 3.78525 15.7284 3.77753 15.753 3.76981C15.7442 3.79466 15.7355 3.81951 15.703 3.81866Z" fill="black"/>
<path d="M11.8072 23.5544C11.8097 23.6707 11.8097 23.7424 11.8097 23.8141C11.774 23.822 11.7383 23.8299 11.7026 23.8378C11.4469 22.9037 11.1912 21.9697 10.9354 21.0357C10.9842 21.0216 11.0329 21.0074 11.0816 20.9933C11.3226 21.8322 11.5636 22.671 11.8072 23.5544Z" fill="black"/>
<path d="M14.7538 20.0674C15.2018 20.2018 15.6119 20.3101 16.0692 20.4308C15.9555 20.5592 15.8412 20.6882 15.7483 20.7931C15.2915 20.1097 14.4145 20.3785 13.7562 19.849C14.1668 19.9312 14.4414 19.9862 14.7538 20.0674Z" fill="black"/>
<path d="M13.1634 22.1977C13.1171 21.9591 13.0957 21.7602 13.0742 21.5613C13.3787 21.922 13.237 22.4843 13.7944 22.727C13.6703 22.8313 13.5122 22.9641 13.3795 23.0756C13.3201 22.8155 13.2542 22.5265 13.1634 22.1977Z" fill="black"/>
<path d="M15.7965 22.3531C15.6822 22.0786 15.5777 21.7995 15.4492 21.5319C15.3905 21.4095 15.2845 21.3097 15.1529 21.1384C15.201 21.0903 15.3219 20.9691 15.5032 20.7874C15.6103 21.3024 15.6973 21.7208 15.7824 22.2156C15.7858 22.3124 15.7912 22.3327 15.7965 22.3531Z" fill="black"/>
<path d="M12.5829 21.6674C12.6796 22.0872 12.7762 22.4582 12.8728 22.8293C12.8198 22.8404 12.7669 22.8514 12.714 22.8625C12.5976 22.3629 12.4813 21.8633 12.3649 21.3637C12.4274 21.3527 12.4898 21.3418 12.5523 21.3308C12.5624 21.4268 12.5726 21.5227 12.5829 21.6674Z" fill="black"/>
<path d="M16.2282 21.3685C16.3401 21.7951 16.4494 22.1778 16.5587 22.5604C16.4976 22.5723 16.4366 22.5841 16.3756 22.5959C16.2671 22.0955 16.1587 21.595 16.0502 21.0945C16.0976 21.0846 16.1449 21.0746 16.1922 21.0646C16.2033 21.1512 16.2145 21.2379 16.2282 21.3685Z" fill="black"/>
<path d="M14.6272 22.4597C14.5804 22.5294 14.4876 22.6571 14.3988 22.6544C14.2277 22.6491 14.059 22.57 13.8515 22.5107C13.942 22.4047 14.0296 22.3021 14.0742 22.2498C14.283 22.3356 14.433 22.3972 14.6272 22.4597Z" fill="black"/>
<path d="M14.8019 21.3579C15.0446 21.4943 15.0446 21.4943 14.7937 21.712C14.5638 21.5816 14.3807 21.4777 14.0965 21.3164C14.366 21.3334 14.5603 21.3456 14.8019 21.3579Z" fill="black"/>
<path d="M14.7833 20.803C14.519 20.8275 14.2542 20.8051 13.9895 20.7826C13.9995 20.7183 14.0094 20.6541 14.0193 20.5898C14.2739 20.6452 14.5284 20.7007 14.7833 20.803Z" fill="black"/>
<path d="M14.6995 23.1194C14.8081 23.1405 14.8688 23.1613 14.9296 23.1822C14.8713 23.2343 14.8073 23.3361 14.7558 23.3301C14.5211 23.3026 14.2899 23.245 14.0556 23.1193C14.2543 23.1193 14.453 23.1193 14.6995 23.1194Z" fill="black"/>
<path d="M13.3223 20.6096C13.2507 20.5099 13.2314 20.4067 13.2075 20.2791C13.3353 20.2734 13.4578 20.268 13.6814 20.2581C13.5431 20.4148 13.4588 20.5104 13.3223 20.6096Z" fill="black"/>
<path d="M11.2208 19.9774C11.2214 20.0523 11.1901 20.0959 11.1589 20.1396C11.1689 20.0751 11.1789 20.0106 11.2208 19.9774Z" fill="black"/>
<path d="M12.5453 20.4177C12.5459 20.4926 12.5146 20.5363 12.4834 20.58C12.4934 20.5155 12.5034 20.451 12.5453 20.4177Z" fill="black"/>
<path d="M15.7864 22.2612C15.8089 22.2685 15.8254 22.3067 15.8192 22.349C15.7912 22.3328 15.7858 22.3124 15.7864 22.2612Z" fill="black"/>
<path d="M8.93762 20.5645C8.91515 20.5572 8.89867 20.5189 8.90484 20.4767C8.93287 20.4929 8.93824 20.5133 8.93762 20.5645Z" fill="black"/>
<path d="M47.1326 14.8531C47.1019 14.6474 47.0733 14.4878 47.0266 14.2272C47.5555 14.9936 47.9326 17.0698 47.7564 17.2657C47.5642 16.5343 47.3494 15.7167 47.1326 14.8531Z" fill="black"/>
<path d="M44.9997 19.5976C44.14 19.3772 43.3251 19.1579 42.5103 18.9386C42.5224 18.8915 42.5345 18.8445 42.5467 18.7975C43.5021 19.0452 44.4575 19.2928 45.4305 19.5451C45.3921 19.5856 45.343 19.6823 45.2845 19.6883C45.2084 19.6961 45.1248 19.632 44.9997 19.5976Z" fill="black"/>
<path d="M46.4119 16.9524C46.3235 17.0119 46.269 17.0426 46.3112 17.0189C46.222 16.4555 46.1331 15.8931 46.0441 15.3308C46.098 15.3212 46.152 15.3116 46.2059 15.302C46.2859 15.8425 46.3658 16.383 46.4119 16.9524Z" fill="black"/>
<path d="M45.3056 18.8199C45.2334 18.8375 45.1953 18.8273 45.1572 18.817C45.1668 18.7907 45.1823 18.741 45.1851 18.7417C45.2375 18.7549 45.2884 18.774 45.3056 18.8199Z" fill="black"/>
<path d="M45.1127 18.9621C45.1125 18.9958 45.088 19.004 45.0636 19.0122C45.0719 18.987 45.0802 18.9619 45.1127 18.9621Z" fill="black"/>
<path d="M27.9239 10.6371C27.8734 10.4484 27.822 10.3048 27.7325 10.0547C27.7174 10.0709 27.7868 9.99607 27.9066 9.86664C28.019 10.2225 28.1196 10.5411 28.2202 10.8597C28.181 10.8942 28.1417 10.9286 28.1025 10.9631C28.0426 10.8695 27.9828 10.7758 27.9239 10.6371Z" fill="black"/>
<path d="M31.3974 7.86531C31.2275 7.8643 31.0812 7.84511 30.8811 7.81888C31.0094 7.67932 31.1298 7.54829 31.2814 7.38333C31.3439 7.52924 31.3865 7.6288 31.4471 7.76795C31.4503 7.82074 31.4356 7.83394 31.3974 7.86531Z" fill="black"/>
<path d="M26.7321 7.60527C26.7703 7.55935 26.8341 7.55076 26.8979 7.54218C26.8511 7.57565 26.8044 7.60913 26.7321 7.60527Z" fill="black"/>
<path d="M27.6447 6.67483C27.6805 6.63429 27.7433 6.62846 27.806 6.62262C27.7612 6.65159 27.7164 6.68056 27.6447 6.67483Z" fill="black"/>
<path d="M28.6134 5.80406C28.6135 5.77168 28.6389 5.76365 28.6642 5.75562C28.6557 5.77988 28.6472 5.80414 28.6134 5.80406Z" fill="black"/>
<path d="M24.4016 11.6675C25.4166 11.9298 26.385 12.1899 27.3534 12.45C27.3409 12.4978 27.3285 12.5456 27.3161 12.5933C25.8998 12.2245 24.4836 11.8557 23.0896 11.4927C23.2492 11.3138 23.4333 11.333 24.4016 11.6675Z" fill="black"/>
<path d="M21.0816 15.8462C21.0482 15.5963 21.0151 15.3939 20.9821 15.1916C21.0222 15.1862 21.0624 15.1808 21.1025 15.1754C21.3474 16.1281 21.5922 17.0809 21.837 18.0336C21.7905 18.0468 21.7439 18.06 21.6974 18.0731C21.4922 17.3467 21.2871 16.6202 21.0816 15.8462Z" fill="black"/>
<path d="M24.3507 12.9089C25.0418 13.1107 25.6926 13.2882 26.3434 13.4656C26.3321 13.5132 26.3209 13.5608 26.3097 13.6083C25.346 13.3609 24.3823 13.1134 23.4186 12.866C23.4217 12.8339 23.4247 12.8018 23.4278 12.7697C23.722 12.808 24.0162 12.8463 24.3507 12.9089Z" fill="black"/>
<path d="M23.6011 14.5097C23.5232 14.6645 23.4139 14.7846 23.3198 14.8881C22.9989 14.5499 22.6948 14.2293 22.3625 13.879C22.3953 13.8446 22.4659 13.7708 22.4687 13.7678C22.8502 14.0129 23.2099 14.244 23.6011 14.5097Z" fill="black"/>
<path d="M22.3933 15.6286C22.5636 16.0824 22.7338 16.5363 22.9041 16.9901C22.8382 17.0104 22.7723 17.0307 22.7064 17.051C22.6061 16.648 22.5058 16.245 22.4075 15.7657C22.404 15.6692 22.3987 15.6489 22.3933 15.6286Z" fill="black"/>
<path d="M21.8616 14.3911C21.961 14.2181 22.0665 14.0965 22.172 13.975C22.2217 14.0269 22.2714 14.0789 22.321 14.1308C22.1699 14.2347 22.0188 14.3387 21.8616 14.3911Z" fill="black"/>
<path d="M24.7675 15.0122C24.6077 15.0467 24.4218 15.0467 24.2358 15.0467C24.2432 14.9902 24.2505 14.9338 24.2579 14.8773C24.419 14.9108 24.5801 14.9443 24.7675 15.0122Z" fill="black"/>
<path d="M22.5683 14.7465C22.4961 14.7641 22.458 14.7539 22.4199 14.7436C22.4295 14.7174 22.445 14.6676 22.4478 14.6683C22.5002 14.6815 22.5511 14.7006 22.5683 14.7465Z" fill="black"/>
<path d="M23.3478 13.7673C23.42 13.7496 23.4581 13.7599 23.4962 13.7702C23.4866 13.7964 23.4711 13.8461 23.4684 13.8454C23.4159 13.8322 23.365 13.8131 23.3478 13.7673Z" fill="black"/>
<path d="M21.1029 14.3209C21.1412 14.275 21.205 14.2664 21.2688 14.2578C21.222 14.2913 21.1753 14.3247 21.1029 14.3209Z" fill="black"/>
<path d="M22.095 13.2884C22.1439 13.3142 22.1499 13.3548 22.1558 13.3954C22.1129 13.3986 22.0699 13.4018 22.0269 13.405C22.0353 13.3711 22.0437 13.3372 22.095 13.2884Z" fill="black"/>
<path d="M22.4034 15.7205C22.3809 15.7132 22.3645 15.6749 22.3706 15.6326C22.3987 15.6489 22.404 15.6692 22.4034 15.7205Z" fill="black"/>
<path d="M24.0937 14.7856C24.1263 14.7865 24.1338 14.8118 24.1413 14.8371C24.1171 14.8281 24.0929 14.8191 24.0937 14.7856Z" fill="black"/>
<path d="M20.2826 15.162C20.2489 15.1617 20.2407 15.1373 20.2325 15.113C20.2577 15.1213 20.2829 15.1295 20.2826 15.162Z" fill="black"/>
<path d="M5.27 4.03108C4.91352 4.34097 4.55704 4.65087 4.20057 4.96076C4.23355 5.01528 4.26652 5.0698 4.2995 5.12432C4.46442 5.14914 4.62934 5.17397 4.79425 5.1988C4.79491 5.2425 4.79556 5.28621 4.79622 5.32991C4.47869 5.31272 4.16116 5.29552 3.84363 5.27833C3.80278 5.2347 3.76194 5.19108 3.7211 5.14745C4.07164 4.9037 4.42218 4.65994 4.77272 4.41619C4.72771 4.35172 4.6827 4.28726 4.63769 4.22279C4.46918 4.20054 4.30067 4.17828 4.13216 4.15603C4.12801 4.12779 4.12386 4.09956 4.11972 4.07132C4.44402 4.03546 4.76832 3.9996 5.15792 3.97913C5.23881 4.0067 5.2544 4.01889 5.27 4.03108Z" fill="black"/>
<path d="M4.07063 7.8188C3.53086 7.68873 3.03785 7.56064 2.54483 7.43255C2.55442 7.38179 2.56401 7.33103 2.5736 7.28027C3.55609 7.52403 4.53857 7.76779 5.52106 8.01154C5.03545 8.1848 4.581 7.95632 4.07063 7.8188Z" fill="black"/>
<path d="M2.79544 6.38924C2.87713 6.2436 3.00271 6.09413 3.16842 5.94089C3.27224 6.01352 3.32225 6.13513 3.4018 6.15906C3.95372 6.3251 4.51179 6.47083 5.04418 6.66793C4.99991 6.71669 4.97933 6.7206 4.95875 6.72452C4.43016 6.60604 3.90355 6.47724 3.3718 6.37508C3.2013 6.34232 3.0172 6.37998 2.79544 6.38924Z" fill="black"/>
<path d="M5.20114 3.97464C5.28497 3.78593 5.39087 3.61706 5.54198 3.3761C5.6524 4.05969 5.74291 4.62001 5.83342 5.18033C5.80251 5.17911 5.7716 5.17788 5.74069 5.17665C5.60445 4.77947 5.46821 4.38229 5.30098 4.00808C5.2544 4.01886 5.23881 4.00667 5.20114 3.97464Z" fill="black"/>
<path d="M6.15676 4.23162C6.10932 4.0581 6.08301 3.92493 6.0567 3.79176C6.09914 3.78394 6.14158 3.77613 6.18402 3.76831C6.30773 4.29582 6.43144 4.82334 6.55515 5.35085C6.50666 5.36213 6.45817 5.37341 6.40968 5.38468C6.33241 5.01378 6.25515 4.64288 6.15676 4.23162Z" fill="black"/>
<path d="M4.85799 6.05127C4.56289 6.00448 4.31733 5.95447 4.07178 5.90445C4.07926 5.86023 4.08674 5.81601 4.09422 5.77179C4.38939 5.80436 4.68455 5.83693 4.97972 5.86949C4.95566 5.92901 4.93159 5.98853 4.85799 6.05127Z" fill="black"/>
<path d="M5.98199 3.11765C6.00527 3.04735 6.06013 3.00975 6.15272 2.96857C6.1315 3.02677 6.07254 3.08856 5.98199 3.11765Z" fill="black"/>
<path d="M7.04404 2.12446C6.99513 2.09868 6.98917 2.05806 6.98322 2.01743C7.0262 2.01422 7.06918 2.01102 7.11217 2.00781C7.10377 2.04174 7.09538 2.07568 7.04404 2.12446Z" fill="black"/>
<path d="M5.4328 7.08949C5.50299 7.06814 5.54593 7.08215 5.58888 7.09615C5.57733 7.11843 5.56341 7.16073 5.55462 7.1597C5.50426 7.15377 5.45512 7.13756 5.4328 7.08949Z" fill="black"/>
<path d="M6.417 6.26796C6.36759 6.23486 6.34964 6.17549 6.36023 6.1699C6.39553 6.15126 6.44106 6.15191 6.48268 6.14517C6.47563 6.18556 6.46858 6.22594 6.417 6.26796Z" fill="black"/>
<path d="M3.23564 5.94026C3.20946 5.88231 3.22558 5.81025 3.27766 5.72656C3.30173 5.78534 3.28983 5.85575 3.23564 5.94026Z" fill="black"/>
<path d="M5.05084 6.7209C5.04352 6.74257 5.00585 6.75609 4.96347 6.74707C4.97934 6.7206 4.99991 6.71668 5.05084 6.7209Z" fill="black"/>
<path d="M40.8348 21.7936C40.7275 21.7157 40.6632 21.6382 40.5988 21.5608C40.6145 21.5261 40.6301 21.4914 40.6458 21.4567C40.9869 21.5398 41.3279 21.6229 41.7142 21.7171C41.5986 21.8438 41.5003 21.9517 41.4875 21.9657C41.2297 21.8931 41.0538 21.8436 40.8348 21.7936Z" fill="black"/>
<path d="M0.845629 9.93921C1.14027 10.0334 1.3961 10.1011 1.71314 10.1851C1.35862 10.7151 1.02473 9.95032 0.645172 10.1796C0.699052 10.0907 0.752933 10.0018 0.845629 9.93921Z" fill="black"/>
</g>
<defs>
<clipPath id="clip0_1_10130">
<rect width="50" height="24" fill="white"/>
</clipPath>
</defs>
</svg>
