<svg width="21" height="21" viewBox="0 0 21 21" fill="none" xmlns="http://www.w3.org/2000/svg">
<path fill-rule="evenodd" clip-rule="evenodd" d="M10.4687 0C4.67979 0 0 4.8125 0 10.7662C0 15.5253 2.9985 19.5538 7.15821 20.9797C7.67829 21.0868 7.86879 20.748 7.86879 20.463C7.86879 20.2134 7.85164 19.3578 7.85164 18.4664C4.9395 19.1083 4.33307 17.183 4.33307 17.183C3.86507 15.9353 3.17164 15.6146 3.17164 15.6146C2.2185 14.9551 3.24107 14.9551 3.24107 14.9551C4.29836 15.0264 4.85314 16.0602 4.85314 16.0602C5.78893 17.6999 7.29686 17.2366 7.9035 16.9514C7.99007 16.2562 8.26757 15.7749 8.56221 15.5076C6.23957 15.258 3.79586 14.3312 3.79586 10.1957C3.79586 9.01928 4.21157 8.05678 4.87029 7.30822C4.76636 7.04091 4.40229 5.93556 4.97443 4.45616C4.97443 4.45616 5.85836 4.17091 7.85143 5.56128C8.70473 5.32561 9.58473 5.20573 10.4687 5.20472C11.3526 5.20472 12.2537 5.32963 13.0858 5.56128C15.0791 4.17091 15.963 4.45616 15.963 4.45616C16.5351 5.93556 16.1709 7.04091 16.0669 7.30822C16.743 8.05678 17.1416 9.01928 17.1416 10.1957C17.1416 14.3312 14.6979 15.2401 12.3579 15.5076C12.7393 15.8463 13.0684 16.4878 13.0684 17.5039C13.0684 18.9477 13.0513 20.1064 13.0513 20.4628C13.0513 20.748 13.242 21.0868 13.7619 20.9799C17.9216 19.5536 20.9201 15.5253 20.9201 10.7662C20.9372 4.8125 16.2403 0 10.4687 0Z" fill="black"/>
</svg>
